<svg id="Layer_1" data-name="Layer 1" xmlns="http://www.w3.org/2000/svg" viewBox="0 0 16.68 20"><defs><style>.cls-1{fill:#fd596f;}.cls-2{fill:#7b7089;}.cls-3{fill:#c5bccf;}.cls-4{fill:#41364f;}</style></defs><title>free-return</title><path class="cls-1" d="M5.59,5.62h.07s0,0,0,.06H5.57l0,0,.14,0v0h.07a.35.35,0,0,0,0,.11l.07,0s0,0,0,0h.07c.08-.06.08,0,.16,0a.34.34,0,0,0,.31,0s0,0,.06,0l.38.1c.09,0,.1,0,.17,0l0,0a.18.18,0,0,1,.16,0c.17,0,.35,0,.51,0h.09a.59.59,0,0,0,.23,0,.68.68,0,0,1,.21,0h0l.12,0h.25a.81.81,0,0,0,.22,0H9a.43.43,0,0,0,.16,0c.08,0,.15,0,.24,0a.26.26,0,0,0,.15,0c.09,0,.17,0,.24,0h.1c.1,0,.2,0,.31,0l.12,0a.22.22,0,0,0,.16,0s0,0,.05,0,.08,0,.1,0,.07,0,.11,0,.06,0,.11,0l.28.08.12,0s0,0,.06.05.07,0,.08,0a.07.07,0,0,0,.11,0,.77.77,0,0,1,.3-.06h0s0,0,0,.06h.07s0,0,0,.07h0s0,.09,0,.11.09.1,0,.17,0,0,0,.07l0,0a0,0,0,0,0,0,0c-.12,0-.16.07-.26.07s-.09,0-.15,0l0,0s0,0,0,0l-.08,0,0,0a1,1,0,0,1-.16.06c-.05,0-.06,0-.06,0s-.09.07-.13.1l0,0A.16.16,0,0,0,11,7.1l.07,0-.09,0s0,0,0,.06l-.07,0-.08,0,0,0s-.07,0-.07,0,0,0-.07.07,0,.07-.11.08,0,.09,0,.11-.05.15-.13.17-.1.09-.07.16,0,.11-.09.13h0c0,.09,0,.13-.1.15s0,0,0,.06,0,.12-.08.15,0,0,0,0,0,.06,0,.09a.1.1,0,0,0,0,.08s0,0,0,.07-.07,0,0,0L10,8.81v0a.29.29,0,0,1,0,.09s0,0,0,0a.25.25,0,0,1,0,.12.24.24,0,0,0,0,.09s0,.06,0,.07,0,.19-.11.24l.1.07c0,.08.07.16.11.23a.08.08,0,0,0,0,.05l.09.12a.05.05,0,0,0,0,0l.11.1s.07.09.11.11a.29.29,0,0,0,.24,0l.18-.07.17,0h0s0,0,0,0a1.85,1.85,0,0,1,.23,0c.06,0,.08,0,.09,0a.51.51,0,0,0,.09-.26c0-.05,0-.11.06-.13a.92.92,0,0,0,.21-.13c.19-.12.14-.12.35-.05a1.33,1.33,0,0,0,.28.1.93.93,0,0,0,.33,0,.73.73,0,0,0,.35-.15l.21-.12.09,0v0c0-.11,0-.13.09-.17s.1,0,.14-.05A.42.42,0,0,1,13.73,9l.08,0,.29-.14.15.09.08,0a.15.15,0,0,1,.13,0s.07.13,0,.16,0,.11,0,.16a.42.42,0,0,0,0,.13s0,.08,0,.11.05.11,0,.13,0,.05,0,.07,0,.1,0,.14h0c-.1,0-.13,0-.14.1a.49.49,0,0,0,0,.12.16.16,0,0,1-.1.18c0,.07,0,.13,0,.19s-.07.37-.1.55l-.06.47c0,.12,0,.25,0,.38a2.47,2.47,0,0,1-.05.38.08.08,0,0,1,0,0s0,0,0,.08a.59.59,0,0,0,0,.08.36.36,0,0,1,0,.1,1.94,1.94,0,0,0,0,.24c0,.15,0,.31,0,.47s0,.23,0,.35a.65.65,0,0,1,0,.21c-.07.13,0,.26,0,.39s0,.2,0,.3a.5.5,0,0,1,0,.12c0,.07-.06.12-.08.18s0,0-.08,0h0l0,.05-.05-.05a.22.22,0,0,1,0,.08c-.05-.07-.08,0-.12,0s-.08,0-.13,0h0a.18.18,0,0,0,0,.06c-.05,0-.08,0-.13,0s-.08,0-.12,0l0,0h0l0,0a.25.25,0,0,1-.19,0,0,0,0,0,1,0,0L12.51,15a.09.09,0,0,1,0,.05l-.05,0a.09.09,0,0,1-.11,0s-.05,0-.08,0V15s-.08,0-.1,0a.07.07,0,0,1-.09,0s0,0-.07-.07l-.08.07-.09-.1s0,0,0,0-.07,0-.1,0l-.24-.07a.64.64,0,0,0,0,.07l-.12-.1-.1.08-.06-.06-.05,0-.06,0h0l0,0c-.08,0-.14,0-.21,0s-.09,0-.11,0-.07,0-.1,0-.19,0-.28,0h-.05c0,.05-.07,0-.1.05s0-.12-.11-.1l0,.06a.72.72,0,0,0-.07-.11c-.11,0-.21,0-.31,0s-.06,0-.08,0l0,0a.09.09,0,0,1-.06,0v0a.22.22,0,0,1-.18,0s0,0,0,.06a.68.68,0,0,0,0-.07c-.05,0-.1,0-.14,0s-.17,0-.24-.05H8.72l-.23-.07h0a.1.1,0,0,1-.13,0l-.1.06c0-.08-.08,0-.12-.05A.46.46,0,0,1,8,14.8c-.05.06-.1.09-.17.06l-.27-.1,0,0c0-.08,0-.09-.08-.1a.47.47,0,0,1-.19-.18.1.1,0,0,0,0,0,1.47,1.47,0,0,0-.22-.1,1.07,1.07,0,0,1-.31-.24c-.06-.06-.11-.13-.16-.19l0,0,.07,0,0,0,0,0c-.05,0,0,0,0-.06l.09-.06s0,0,0-.05l.1-.05s0,0,0-.06,0-.06,0-.1-.06-.12-.12-.16a.09.09,0,0,1-.06,0,.11.11,0,0,0-.12,0c-.09,0-.14.08-.23.09h0l-.09.06s-.09.06-.15,0a.44.44,0,0,0-.13-.25l-.08,0-.26-.31-.33-.4-.12-.13a.26.26,0,0,1,.12-.15.14.14,0,0,0,.07-.1s0-.06,0-.07-.1,0-.12-.1,0-.05,0-.08-.06,0-.06,0c0-.16,0-.32,0-.47V10.22c0-.15,0-.29,0-.44s0-.26,0-.39,0-.09,0-.14l.06-.34c0-.14,0-.29.06-.44s0-.21,0-.32,0-.21,0-.31l.06-.49c0-.11,0-.21,0-.32s0-.07,0-.11l0-.29c0-.06,0-.14,0-.2a1.86,1.86,0,0,0,0-.33c0-.11,0-.23,0-.34a1,1,0,0,1,0-.17c.09.11.13,0,.2,0Z" transform="translate(-1.66 0)"/><path class="cls-2" d="M14.49,9.85l.26-.08c.1.08.07.19.08.3L15,10l.19.23,0,0,.26.15a1.8,1.8,0,0,1,.2.19l.29.36a1.41,1.41,0,0,1,.13.24,2.72,2.72,0,0,1,.19.47,1.06,1.06,0,0,1,.11.21,1.59,1.59,0,0,1,.14.57l0,0v.56a1.6,1.6,0,0,0-.05.21c0,.11-.05.21-.08.32s-.09.27-.14.4l-.16.29s-.08.07-.12.1l0,0s-.13.05-.15.1-.2.07-.27.12h-.09l-.17.13s0,0,0,0a.1.1,0,0,0-.08.06l0,.1h0l0,0L15,15h0c-.06,0-.15.06-.16.15s0,.05-.05.06-.06.05-.08.05a.41.41,0,0,1-.15,0,.13.13,0,0,1,0-.09c0-.14,0-.28,0-.43a.68.68,0,0,1,0-.14,1.77,1.77,0,0,0,0-.46,1.66,1.66,0,0,0,0-.22c0-.11,0-.23-.05-.36a1.05,1.05,0,0,0,0-.19c0-.11,0-.21-.06-.32h-.13s-.07,0-.07-.06,0-.12,0-.18H14s-.09,0-.09-.06a.71.71,0,0,1,0-.25.79.79,0,0,0,0-.22,1.51,1.51,0,0,0,.06-.37c0-.13,0-.26,0-.39s0-.31.07-.47.07-.36.1-.55a.2.2,0,0,0,0-.18.16.16,0,0,0,.1-.18.45.45,0,0,1,0-.12c0-.08,0-.1.15-.1Z" transform="translate(-1.66 0)"/><path class="cls-3" d="M15,14.94l0,0,0,.05a0,0,0,0,0,0,0,.18.18,0,0,0,0-.09.08.08,0,0,1,.08-.07l0,0,.16-.13s0,0,.05,0h0c.08-.06.2,0,.27-.13a.29.29,0,0,1,.15-.09c0,.05.07.06.14.06s0,.09,0,.14h0a.23.23,0,0,1-.08.24.27.27,0,0,0-.07.08s0,0,0,0-.09.09-.13.13a.65.65,0,0,0-.13.16.77.77,0,0,0-.08.19s0,0,0,0a.39.39,0,0,1,0,.26c0,.14-.08.29-.11.43s-.09.31-.15.46a1.31,1.31,0,0,1-.08.21,4.75,4.75,0,0,1-.28.55,1.18,1.18,0,0,0-.07.2s0,0,0,0l-.15.22a.72.72,0,0,1-.25.24l-.11,0-.68.38a3.43,3.43,0,0,1-.8.32c-.14,0-.27.09-.42.12l-.68.12-.39.06H10.4a.41.41,0,0,0-.19,0L9.85,19H9.74a1.84,1.84,0,0,1-.41,0,6.44,6.44,0,0,1-1,0q-.35,0-.69-.06L7.17,19l-.46-.11-.19-.05a2.54,2.54,0,0,1-.45-.13c-.1,0-.21-.05-.31-.09l-.16-.07-.43-.15a.31.31,0,0,1-.15-.1c-.15.11-.28,0-.39-.08,0,.05-.08.08-.07.15a.19.19,0,0,1,0,.15.71.71,0,0,0-.13.22c-.06.09-.1.19-.16.28L4,19.42a.17.17,0,0,1-.21.11h0c-.09,0-.12,0-.1-.11s0,0,0,0a.35.35,0,0,0-.09-.28.81.81,0,0,0-.1-.18,3,3,0,0,1-.2-.49,1.59,1.59,0,0,0-.12-.27s0,0,0,0A.88.88,0,0,0,3,17.81a.61.61,0,0,1,0-.13c0-.05-.09-.06,0-.12l-.08-.11a.26.26,0,0,1,0-.08l-.09-.2s0-.05-.06-.07l0,0a.56.56,0,0,0-.12-.23s0-.07,0-.09a.94.94,0,0,0,0-.09.14.14,0,0,1,0-.21s.1,0,.06-.11h0c.08-.07,0-.11,0-.14A1.51,1.51,0,0,0,2.31,16s0-.05-.05-.06-.07-.06-.11-.09,0-.06,0-.09a.32.32,0,0,1-.18-.21l-.18-.44a.65.65,0,0,1,0-.14s0,0,0,0,.13-.11.21-.15l.07,0,0,0a.28.28,0,0,1,.29-.14s.06,0,.09,0,.13,0,.18-.05a.46.46,0,0,1,.21-.1.65.65,0,0,0,.19-.09.22.22,0,0,1,.16,0c.07,0,.13,0,.21,0h.12l0,0c.07,0,.11,0,.18,0a.07.07,0,0,0,.07,0s.09-.07.15,0H4L4.25,14A1.36,1.36,0,0,1,4.54,14h0c.12-.09.27-.06.4-.11l.17-.07.19,0,.31-.14.06,0,.3-.1a.23.23,0,0,0,0-.07s.1,0,.15,0l.09-.06h0c.09,0,.14-.08.23-.1a.2.2,0,0,1,.11,0l.07,0c.06,0,.07.11.12.15s0,.07,0,.11,0,0,0,.05l-.1.06s0,0,0,0l-.09.07s-.09,0,0,.06l0,0,0,0-.07,0,0,0L6.43,14l0,0s-.08.06-.07.12,0,.08-.07.13,0,.11,0,.16l0,.05s0,.07,0,.1,0,.1,0,.17-.08.18-.09.28a.92.92,0,0,1-.1.32H6c.17,0,.32,0,.47,0l.52.09c.2,0,.41.06.62.09l.18,0,.31.07.36.08a1.63,1.63,0,0,0,.3.07,3.2,3.2,0,0,1,.54.09h.24a1,1,0,0,0,.17,0c.13,0,.27,0,.41,0s.29,0,.44,0a2.38,2.38,0,0,1,.38,0c.24,0,.48,0,.73.05a1.94,1.94,0,0,0,.24,0,1.22,1.22,0,0,0,.26-.06.94.94,0,0,1,.27-.06,1.28,1.28,0,0,0,.28-.07l.26-.06.35-.09.27-.09.23-.07c.11,0,.21-.09.32-.13a1.13,1.13,0,0,1,.22-.08c.06,0,.11-.07.17-.09l.15,0s.05,0,.08-.06l.05-.05.16-.16h0s0,0,0,0Z" transform="translate(-1.66 0)"/><path class="cls-3" d="M6,13.43H6l-.21-.13.05-.08.08,0A.36.36,0,0,1,6,13.43Z" transform="translate(-1.66 0)"/><path class="cls-4" d="M11.36,0A1.37,1.37,0,0,1,12,.28c.15.11.31.22.34.4a.9.9,0,0,1,0,.4,2.86,2.86,0,0,1-.52.84l-.31.36.43.23A.54.54,0,0,1,12.1,3a1.27,1.27,0,0,1-.64.94l-.32.19c-.06,0-.06.06,0,.11a.48.48,0,0,1,.07.2.55.55,0,0,1-.13.53,1.44,1.44,0,0,1-.82.46.09.09,0,0,0-.08,0l-.15.2.17,0,1,.06c.28,0,.56,0,.84.06a.23.23,0,0,0,.14,0l.92-.8c.26-.23.54-.46.81-.68s.44-.32.66-.48.26-.2.4-.28.45-.25.67-.39S15.87,3,16,3l.46-.25.25-.12a1.15,1.15,0,0,1,.48-.1,1.69,1.69,0,0,1,.59,0,.75.75,0,0,1,.49.41.92.92,0,0,1,.06.61,2.1,2.1,0,0,1-.21.39,1,1,0,0,1-.09.18l-.66.64L17.16,5l.27,0a.44.44,0,0,1,.28.23.92.92,0,0,1,.16.48,1.28,1.28,0,0,1-.56.93,3.38,3.38,0,0,1-.5.27l-.06,0a.5.5,0,0,1,.05.71,1.7,1.7,0,0,1-1,.68,2.49,2.49,0,0,1-.77.13s0,0,0,0a.34.34,0,0,1-.24.33c-.15.08-.23.17-.19.33a.36.36,0,0,1,0,.18c0,.11,0,.14.13.19a2.35,2.35,0,0,1,.25.19c.18.15.37.31.54.47a5.13,5.13,0,0,1,.53.51,2.73,2.73,0,0,1,.37.54,2.45,2.45,0,0,1,.32.93c0,.2.05.41,0,.61a2.55,2.55,0,0,1-.14.56c-.13.44-.26.88-.41,1.32s-.23.62-.34.93-.26.67-.38,1-.19.48-.3.71a4.17,4.17,0,0,1-.33.67,1.15,1.15,0,0,1-.36.29c-.4.2-.79.38-1.2.56a2.94,2.94,0,0,1-.53.14,5.41,5.41,0,0,1-.55.12l-.76.16c-.22,0-.43.06-.65.08a4.47,4.47,0,0,1-.52,0l-.71,0-.74,0-.3,0L8,19.2l-.37-.05c-.27,0-.54-.09-.82-.16s-.43-.12-.65-.19-.42-.17-.64-.25-.19,0-.28-.08A1.79,1.79,0,0,1,5,18.34c-.08,0-.11,0-.15.05s-.07.18-.12.27-.13.17-.17.25l-.32.63L4,20a.12.12,0,0,1-.19,0,2.22,2.22,0,0,1-.21-.37c-.22-.53-.43-1.07-.65-1.6s-.35-.86-.53-1.29c-.08-.21-.18-.41-.26-.62l-.38-1a1.11,1.11,0,0,1-.09-.19.08.08,0,0,1,0-.09c.3-.15.61-.3.92-.42s.76-.28,1.14-.42l.86-.32.65-.22.47-.18L5.51,13a1.38,1.38,0,0,1-.37-.49A.75.75,0,0,0,5,12.28a.67.67,0,0,1-.08-.43c0-.39,0-.77,0-1.17,0-.12,0-.25,0-.37S5,10,5,9.77s0-.38,0-.56,0-.48,0-.72,0-.44,0-.66.08-.7.13-1L5.35,6a1.13,1.13,0,0,0,0-.26c0-.11.06-.15.16-.16a1.36,1.36,0,0,1,.45,0c.18.06.18-.07.22-.15s.27-.37.4-.56.15-.24.23-.35c.2-.29.41-.58.62-.86a7.73,7.73,0,0,1,.49-.64c.19-.24.39-.46.58-.7s.46-.54.7-.8.44-.45.66-.66.38-.36.57-.52A1.56,1.56,0,0,1,11.16,0a.65.65,0,0,0,.2,0Zm1.33,8.77a1.09,1.09,0,0,1,.18,0,3.11,3.11,0,0,0,.68,0,2,2,0,0,0,1.14-.37l-.55-.08s.07-.07.1-.08a3.11,3.11,0,0,1,.44-.08,2.38,2.38,0,0,0,1-.16c.15-.08.32-.14.47-.21a.58.58,0,0,0,.3-.35c.05-.14.1-.28.14-.42S16.54,7,16.52,7a1.5,1.5,0,0,1-.79.12s0-.09,0-.11L16,6.87c.33-.16.68-.29,1-.46a1.11,1.11,0,0,0,.49-.49.66.66,0,0,0,0-.46.3.3,0,0,0-.37-.27.57.57,0,0,0-.13,0l-.46,0-.36,0a.93.93,0,0,1,.13-.18l.36-.23c.19-.12.39-.24.56-.37a2.25,2.25,0,0,0,.64-.8.89.89,0,0,0,0-.66.63.63,0,0,0-.71-.24,5.12,5.12,0,0,0-.62.31c-.22.13-.44.28-.66.4s-.3.17-.43.26L15,4l-.78.58L13.74,5l-.44.33c-.12.09-.22.21-.35.29a7.53,7.53,0,0,0-.77.72c-.13.12-.24.25-.36.37l-.55.52-1,1.09a1.08,1.08,0,0,0-.3.59,1.59,1.59,0,0,0,0,.53.89.89,0,0,0,.18.46.77.77,0,0,0,.67.21.62.62,0,0,0,.48-.35.39.39,0,0,0,.08-.2,2,2,0,0,0-.06-.35.22.22,0,0,0-.07-.06L11,9.12a.51.51,0,0,0-.58.05c-.08-.07-.09-.14,0-.2l.12-.11a.24.24,0,0,1,.1-.06.74.74,0,0,1,.41.06.67.67,0,0,1,.49.38.37.37,0,0,0,.37.24,2.91,2.91,0,0,0,.42,0,1.5,1.5,0,0,0,.86-.4L13,9a.43.43,0,0,1-.33-.22Zm-.48,7.27h0l-.46.06a1.65,1.65,0,0,1-.38.05,3.32,3.32,0,0,0-.54,0c-.3,0-.6,0-.9,0s-.64,0-.95-.08-.57-.07-.85-.13-.58-.11-.86-.16l-.65-.14a2.68,2.68,0,0,1-.75-.2s0-.08,0-.1.12-.32.17-.48.15-.41.21-.62.12-.34.19-.52a1.45,1.45,0,0,1,.09-.25c-.06,0-.12,0-.13,0s-.42.11-.52.15-.34.13-.51.2-.52.2-.55.19l-.32.13-.68.19-.7.24c-.19.07-.37.16-.56.22a3.64,3.64,0,0,1-.39.11l.26.54c.17.38.34.75.5,1.13s.2.5.3.75c.16.45.33.89.49,1.34l.24.64s.05,0,.06-.08c.13-.29.25-.58.39-.87.06-.14.14-.28.21-.42h0c.11,0,.19,0,.28.06a.43.43,0,0,1,.12,0l.17.08.18.05.14.07.18,0,.15.07a2,2,0,0,1,.33.09l.28.1.24.05.58.14c.25.06.5.1.76.15s.47.07.71.09.49,0,.73,0,.57,0,.87,0,.47,0,.72-.07l.81-.11a3.11,3.11,0,0,0,.32,0c.24-.05.47-.13.72-.16a5.4,5.4,0,0,0,.94-.37,4.16,4.16,0,0,0,.47-.24.76.76,0,0,0,.39-.4,8.09,8.09,0,0,1,.34-.86c.09-.22.2-.44.29-.66.16-.37.31-.75.45-1.12.06-.15.11-.31.17-.46-.08,0-.13.12-.19.16s-.4.29-.62.42l-.73.34-.52.21c-.16,0-.33.11-.48.14a1.06,1.06,0,0,1-.4.08s-.11.06-.18.07l-.64.13ZM10.55,2.67c.07-.07.16-.13.23-.19s.38-.37.56-.57A2.17,2.17,0,0,0,11.9,1a.7.7,0,0,0,0-.43.56.56,0,0,0-.38-.32.69.69,0,0,0-.64.07,3.72,3.72,0,0,0-.51.46c-.31.3-.6.6-.89.91l-.84.88c-.16.17-.32.33-.47.52s-.24.33-.36.49-.43.61-.64.91S7,4.82,6.91,5l-.43.65.59,0,.9,0h.79a1.41,1.41,0,0,0,.76-.09l.16-.07a2.3,2.3,0,0,1-.78-.2l.24,0a5.61,5.61,0,0,0,.59-.06,2.62,2.62,0,0,0,.57-.12,1,1,0,0,0,.51-.4c0-.07.1-.18.07-.24a.56.56,0,0,0-.26-.15,1.81,1.81,0,0,0-.52,0l-.35,0c0-.15.16-.11.24-.13a3.12,3.12,0,0,0,1.38-.57.87.87,0,0,0,.39-.49.33.33,0,0,0-.26-.44,1.47,1.47,0,0,0-.42-.05C10.9,2.62,10.72,2.65,10.55,2.67ZM7.47,14.53v-.39c0-.43,0-.85,0-1.28l0-.9c0-.2,0-.41,0-.62l0-.62c0-.33.07-.67.1-1s.06-.52.09-.78c0-.08.06-.17,0-.26-.29-.32-.55-.63-.84-.94s-.34-.39-.53-.57S6.11,6.86,6,6.69l-.33-.34c0,.19-.06.36-.07.54s0,.39,0,.58c0,.36,0,.73-.07,1.09s0,.44,0,.67,0,.38,0,.58,0,.57,0,.86,0,.73,0,1.09c0,.12,0,.24,0,.37a.15.15,0,0,0,0,.1c.15.21.3.42.47.62s.28.32.34.31l.12,0A1.3,1.3,0,0,1,7,13.2s-.15.51-.22.71a6.44,6.44,0,0,0,.72.62Zm1.34-2.47c-.26.85-.52,1.7-.78,2.58h.52c.29,0,.58,0,.87,0l.74.06h.29l.94,0c.27,0,.54.05.81.05s.43,0,.64-.05h.47a.06.06,0,0,0,0-.06.57.57,0,0,0,0-.18c-.05-.29-.09-.58-.14-.87s-.06-.56-.1-.86,0-.35-.06-.49c-.06,0-.12.11-.2.12a2.19,2.19,0,0,1-.36,0l-.59,0-.51,0h-.65l-.78,0-.45,0-.29,0a2.48,2.48,0,0,1-.27,0c-.07,0-.1-.06,0-.1ZM13.53,9.2a.66.66,0,0,1-.39.32,3.87,3.87,0,0,1-.69.17,1.48,1.48,0,0,1-.78-.08.77.77,0,0,1-.51.62c-.09,0-.19,0-.27.08a.75.75,0,0,1-.57,0,1.86,1.86,0,0,1-.57-.43,1.06,1.06,0,0,1-.16-.51,1,1,0,0,1,.05-.6L8.19,8.7l.07.1c.07.24.14.47.22.71.13.45.24.9.35,1.36l.28,1.07a.12.12,0,0,0,.07.05l.43,0,1,0h.45L12,12c.14,0,.29,0,.42,0l.32,0,.07,0c.08-.15.16-.31.25-.45a3.59,3.59,0,0,0,.17-.34c.13-.25.26-.5.38-.75s.18-.41.27-.61.09-.21.14-.31.15-.29.21-.42l-.66.09ZM5.75,5.94,6,6.19l.63.66c.19.18.37.36.55.55s.41.5.63.74c.06.08.08.2.25.19.33,0,.66,0,1,0l.64,0c.05,0,.14,0,.17,0,.17-.2.31-.41.49-.61s.42-.5.64-.74l.4-.4c.15-.15.31-.28.47-.43l-.8-.06-.8,0L9.21,6H8.05L7.21,6l-.66,0Zm9,9,.06,0,.65-.43a.82.82,0,0,0,.35-.34c.11-.21.25-.4.34-.62a3.1,3.1,0,0,0,.19-.66,2.08,2.08,0,0,0,0-.61,2.11,2.11,0,0,0-.18-.59,2.35,2.35,0,0,0-.32-.61,6.65,6.65,0,0,0-.65-.65,3.9,3.9,0,0,0-.4-.31c-.09-.07-.19-.11-.3-.18,0,.31-.06.59-.1.87s-.12.78-.18,1.17q-.06.33-.09.66a.12.12,0,0,0,0,.08,1.2,1.2,0,0,1,.24.27,4.94,4.94,0,0,1,.26.57,2.48,2.48,0,0,1,.14.89,3,3,0,0,1,0,.52Zm-.62-2h0a1.89,1.89,0,0,0,0,.23c0,.23-.05.45-.08.68L13.82,15c0,.1-.05.14-.14.15l-.6,0a2.26,2.26,0,0,0-.45,0,4.31,4.31,0,0,1-.88,0c-.16,0-.33,0-.49,0l-.86,0c-.25,0-.5,0-.76-.05L8.49,15,8,15c-.12,0-.24,0-.35,0a.46.46,0,0,1-.24-.08c-.14-.11-.24-.24-.37-.35s0-.1-.13-.12-.18-.13-.27-.21l-.11.33c-.07.22-.16.44-.23.66s0,.15.13.15h.07l.54.15.55.1c.38.06.76.14,1.13.19s.76.09,1.14.13a4.53,4.53,0,0,0,1,0c.23,0,.47,0,.7-.08s.61-.11.91-.16l.46-.12c.19-.06.39-.1.58-.17l.69-.24c.07,0,.17-.06.18-.1a3.42,3.42,0,0,0,0-.45,2.48,2.48,0,0,0-.05-.77,5,5,0,0,1-.31-.89Zm-6.3,1.26s0,0,0,0c.09-.25.17-.51.25-.78s.19-.63.28-.95a5.58,5.58,0,0,1,.23-.69.47.47,0,0,0,0-.46v0c0-.24-.11-.48-.17-.71l-.16-.72c0-.13-.07-.28-.1-.42a1.88,1.88,0,0,0,0,.33c0,.29,0,.57-.07.86s-.08.66-.11,1,0,.74,0,1.12c0,.17,0,.34,0,.52S7.84,13.92,7.84,14.23Zm5.68-.5h0c.2-1.26.4-2.51.61-3.8l0,.06c-.11.25-.21.51-.33.77s-.29.58-.43.88a.4.4,0,0,0-.08.23c0,.18.07.36.09.54C13.41,12.86,13.47,13.29,13.52,13.73Zm-9.37.51h0Z" transform="translate(-1.66 0)"/><path class="cls-4" d="M12.7,8.82l-.06,0a0,0,0,0,1,0,0l.09,0Z" transform="translate(-1.66 0)"/></svg>