<svg id="Layer_1" data-name="Layer 1" xmlns="http://www.w3.org/2000/svg" viewBox="0 0 17.42 20"><defs><style>.cls-1{fill:#7b7089;}.cls-2{fill:#c5bccf;}.cls-3{fill:#9b93a6;}.cls-4{fill:#40354e;}.cls-5{fill:#f96611;}.cls-6{fill:#fff;}</style></defs><title>secure</title><path class="cls-1" d="M9.85,1.05c0-.11-.06-.23-.08-.34s0-.09,0-.13V.65l0-.08,0,.09h0s0-.09,0-.12A.73.73,0,0,1,10,.45h0a.93.93,0,0,1,.19.11.06.06,0,0,0,0,0,5.1,5.1,0,0,0,.7.62c.19.15.36.31.55.45a8.72,8.72,0,0,0,.71.53c.22.16.45.3.68.44a3.76,3.76,0,0,0,.46.2c.32.13.64.25,1,.36a4.3,4.3,0,0,0,.57.2c.2.06.4.09.6.14a1.67,1.67,0,0,1,.35.07c.1.08.22,0,.32.09s.12,0,.17,0l.37.07h1.58c0,.12,0,.24,0,.37s0,.32,0,.47,0,.2,0,.3l0,.51c0,.16,0,.3,0,.46a2.81,2.81,0,0,1,0,.29c0,.16,0,.33,0,.49s0,.35,0,.52,0,.13,0,.18v.26l0,.4c0,.1,0,.2,0,.3L18.2,9c0,.13,0,.28,0,.41a4,4,0,0,1-.05.6c0,.11,0,.21,0,.31s0,.07,0,.1,0,.32,0,.48-.06.34-.1.52-.05.31-.09.47l-.09.41c0,.13-.05.25-.07.38s0,.14-.05.2-.07.32-.11.48c-.18,0-.25.11-.28.26a3,3,0,0,1-.15.48s0,.07,0,.09c-.11.19-.21.38-.33.56s-.2.22-.29.33-.28.36-.42.54-.25.33-.38.48-.34.35-.51.53l-.26.28c-.07.08-.16.15-.23.22s-.26.24-.38.37-.13.16-.21.23-.11.09-.16.15a3.31,3.31,0,0,1-.27.26,2.46,2.46,0,0,1-.57.45,2.31,2.31,0,0,0-.35.18c-.17.1-.35.15-.52.23l-.78.31-.56.25-.49.19-.16.08h-.15c-.15,0-.24.07-.35.13s-.1,0-.12,0a1.07,1.07,0,0,1-.13-.19l.34-.36.1-.06.77-.47.73-.37c.15-.08.3-.18.44-.27l.45-.3.4-.26c.24-.17.46-.36.69-.54a2.81,2.81,0,0,0,.35-.34c.18-.19.35-.4.52-.59l.5-.55.4-.47c.09-.12.17-.25.25-.38s.16-.25.23-.38l.21-.34c.06-.12.13-.25.18-.38s.13-.26.19-.41.12-.33.19-.5.18-.37.26-.55v0a.27.27,0,0,1,0-.12c0-.07.05-.13.07-.21s.09-.42.13-.64a2.42,2.42,0,0,0,.1-.45,2.89,2.89,0,0,1,0-.29,1.61,1.61,0,0,0,0-.22c.07,0,.07-.08.05-.15a.53.53,0,0,1,0-.13c0-.2,0-.4,0-.59l0-.38,0-.29s0-.06,0-.1l0-.34V7.84a1.7,1.7,0,0,1,0-.22,1.31,1.31,0,0,0,0-.34V7c0-.13,0-.25,0-.37s0-.44,0-.66,0-.27,0-.41,0-.39,0-.59,0-.08-.08-.09l-.55-.05-.53,0-.32,0-.31-.07c-.15,0-.31,0-.46-.08l-.54-.15L14,4.29l-.32-.14-.21-.08-.57-.3-.41-.24s0,0,0,0l-.06-.05a2.4,2.4,0,0,1-.27-.16,1.22,1.22,0,0,0-.29-.23,2.21,2.21,0,0,1-.45-.3,4.61,4.61,0,0,1-.4-.37c-.19-.17-.39-.33-.57-.51A1.47,1.47,0,0,1,10,1.34a.73.73,0,0,0-.17-.29Z" transform="translate(-1.29)"/><path class="cls-2" d="M9.85,1.05a1.89,1.89,0,0,1,.19.3,1.19,1.19,0,0,0,.36.52c.18.19.38.35.57.52s.25.26.4.37a2.93,2.93,0,0,0,.45.3,1.22,1.22,0,0,1,.29.23l.27.16,0,0s0,0,0,0l.41.24.56.3.21.08L14,4.3c.16,0,.3.09.46.12a5.26,5.26,0,0,0,.53.15l.47.08.31.06.32.06.52.05.56,0c.06,0,.09,0,.08.09s0,.39,0,.59,0,.27,0,.41,0,.44,0,.66,0,.24,0,.37,0,.2,0,.3a1,1,0,0,1,0,.34.81.81,0,0,0,0,.22v.37c0,.12,0,.23,0,.34s0,.06,0,.09,0,.2,0,.3l0,.38c0,.2,0,.4,0,.59a.57.57,0,0,0,0,.13c0,.07,0,.12-.05.15a1.61,1.61,0,0,1,0,.22,2.93,2.93,0,0,0-.05.29,1.71,1.71,0,0,1-.09.45c0,.22-.09.42-.13.64s-.06.14-.08.21a.49.49,0,0,0,0,.12v0c-.09.18-.18.37-.26.55s-.12.34-.19.5-.13.28-.19.41l-.18.38-.21.34c-.08.13-.15.26-.23.38s-.16.26-.25.38-.27.32-.41.47l-.49.55c-.17.2-.34.4-.52.59a3.61,3.61,0,0,1-.35.33c-.22.19-.46.38-.69.55s-.28.17-.4.26l-.45.3c-.14.09-.29.19-.44.27s-.5.24-.73.37-.51.31-.77.47l-.11.06-.88-.6L7.87,18c-.15-.09-.31-.17-.46-.27a2.6,2.6,0,0,1-.33-.25,4.82,4.82,0,0,0-.43-.36,4.21,4.21,0,0,1-.92-.81l-.91-1.1a6,6,0,0,1-.91-1.35,6.52,6.52,0,0,1-.36-1c-.11-.35-.22-.7-.31-1.06s-.12-.57-.19-.85-.12-.55-.17-.83-.07-.54-.1-.83,0-.58-.06-.88,0-.34,0-.51,0-.59-.05-.89l0-.51c0-.15,0-.31,0-.45s0-.53,0-.8V5h.18l.57,0,.65-.06.4-.08a2.64,2.64,0,0,1,.28,0l.62-.15.36-.12.33-.14.35-.15c.17-.07.32-.15.48-.23L7,3.89l.43-.25.44-.32c.19-.15.39-.3.57-.46l.35-.34c.18-.19.38-.38.55-.59a3.74,3.74,0,0,0,.35-.53,3.52,3.52,0,0,0,.16-.35ZM13.5,14c0-.07.1-.11.05-.2a3.17,3.17,0,0,0,.21-1.11s0,0,0-.06,0-.08,0-.12,0-.27,0-.41a1.94,1.94,0,0,0,0-.24c0-.07,0-.12-.1-.11-.09-.18-.19-.34-.27-.51s-.12-.32-.18-.48,0-.11-.08-.11-.08-.06-.1-.1a1,1,0,0,0-.08-.11l-.13-.17a.1.1,0,0,1-.09-.11l-.05,0s-.13-.07-.14-.12-.07-.08-.1-.11l-.08-.05c0-.13-.07-.16-.2-.16l-.07-.08,0-.13a2.34,2.34,0,0,1,.3,0c.09,0,.1,0,.1-.07,0-.22,0-.43.06-.65a7.85,7.85,0,0,0,0-1c0-.26-.06-.51-.09-.78a.32.32,0,0,1,0-.19c0-.1.11-.19.16-.29a.15.15,0,0,0,0-.06c0-.16-.09-.32-.15-.48a1.5,1.5,0,0,0-.38-.59,2.44,2.44,0,0,0-.85-.51,2.88,2.88,0,0,0-.63-.15,3.71,3.71,0,0,0-.66,0,2.43,2.43,0,0,0-.54,0,1.78,1.78,0,0,0-.61.17,1.2,1.2,0,0,1-.34.17,1.35,1.35,0,0,0-.63.26,2.44,2.44,0,0,0-.29.27A1.7,1.7,0,0,0,7.34,6a1.09,1.09,0,0,0-.1.25c0,.06,0,.12,0,.19l-.05.24a2.68,2.68,0,0,0-.07.27l0,.45a2.23,2.23,0,0,0,0,.37,5.72,5.72,0,0,0,0,.59A3.24,3.24,0,0,0,7.16,9c0,.17,0,.31,0,.46s-.06.15-.08.23,0,.13,0,.19S7,10,7,10s-.09.09-.09.13-.1,0-.1.05c0,.27-.07.54-.11.81,0,.07-.07.16-.11.23a1.14,1.14,0,0,1-.15.16l0,0H6.27c-.12,0-.22,0-.23.11a2.54,2.54,0,0,1,0,.29c0,.16,0,.32-.08.48s.11.16.12.26a2.9,2.9,0,0,0,.09,1l.06.06s0,.06,0,.1l0,.06c.1.17.2.33.31.49a.77.77,0,0,0,.12.13,2.81,2.81,0,0,0,.35.34c.14.12.31.21.46.32l.32.23.34.22.19.15c.05.05.11.13.17.14a1.14,1.14,0,0,1,.25.06s.07,0,.12-.06l.11,0c.09,0,.19.1.28,0s0,0,0,0,0,0,.06,0,.11,0,.16,0h0s0,0,0-.07h.08c0-.08.1,0,.15,0l.3,0h.48a2.17,2.17,0,0,0,.25,0,1.37,1.37,0,0,1,.19,0l.34-.09.11-.08s0,0,.08,0,.13-.08.19-.11l.46-.29c.13-.1.23-.21.36-.31l.42-.38.07,0,.11.08c.09-.06.08-.19.22-.19s0,0,0,0a.69.69,0,0,1,.1-.19.59.59,0,0,0,0-.23Z" transform="translate(-1.29)"/><path class="cls-3" d="M9.94.54s0,.08,0,.12h0l0-.09,0,.08V.58c0-.13.09-.06.14,0Z" transform="translate(-1.29)"/><path class="cls-2" d="M8.62,9.05H8.48l-.16,0a5.2,5.2,0,0,1,.37-3c.08,0,.55-.15.61-.17s.17-.14.25-.2a.59.59,0,0,1,.37-.08l.68.08a.35.35,0,0,1,.16.06c.1,0,.2.12.31.17a.59.59,0,0,1,.27.27c0,.07.11.13.15.21a1.77,1.77,0,0,1,.08.33.4.4,0,0,0,.26.3.09.09,0,0,1,.05.07c0,.12,0,.25,0,.38s0,.3,0,.44a.74.74,0,0,1,0,.14,2.9,2.9,0,0,0-.06.41c0,.15,0,.32,0,.47s0,.09.07.1a.24.24,0,0,1,.09,0c0,.13,0,.25.07.39l-.16-.17c-.11-.09-.21-.19-.33-.27a.18.18,0,0,0-.16,0l0,0c0-.06-.09-.09-.16,0s-.15,0-.22,0l-.06,0-.22,0-.14,0H10L10,9h0c0-.06,0-.08-.08,0L9.62,9a2.59,2.59,0,0,0-.48,0,4.08,4.08,0,0,0-.52.07Zm2.7,6.67h0Z" transform="translate(-1.29)"/><path class="cls-4" d="M18.71,3.47c0,.1,0,1.69,0,1.76s0,1.17,0,1.38,0,.38,0,.57-.06.63-.06,1-.06.54-.09.81,0,.35-.05.52a6.79,6.79,0,0,0-.11.75,7.71,7.71,0,0,1-.17,1c-.06.33-.16.66-.25,1s-.14.45-.22.68-.09.29-.14.44-.14.41-.23.61-.19.42-.3.63-.16.27-.23.4a1.31,1.31,0,0,1-.12.27,2.54,2.54,0,0,1-.23.34c-.15.19-.31.37-.47.55s-.32.35-.48.53-.3.31-.46.45l-.43.38c-.16.15-.32.3-.48.43S14,18,14,18s0,.06-.09.08l-.52.36c-.19.12-.39.22-.58.33s-.13.12-.19.12-.15.13-.27.13-.15.1-.23.14l-.52.28-.37.18-.36.12-.54.16a.6.6,0,0,1-.44,0c-.3-.14-.63-.22-.95-.34s-.68-.25-1-.41-.72-.4-1.08-.61c-.21-.13-.41-.27-.61-.42s-.57-.43-.84-.65l-.46-.39c-.23-.2-.45-.41-.66-.62a3.28,3.28,0,0,1-.42-.5c-.21-.3-.42-.59-.61-.9a5.28,5.28,0,0,1-.27-.53c-.11-.22-.21-.44-.31-.67a5.79,5.79,0,0,1-.25-.57c-.08-.24-.14-.47-.21-.72s-.17-.56-.25-.85-.12-.53-.17-.81-.06-.3-.08-.45,0-.6-.08-.9c0-.11,0-.22,0-.33a4.36,4.36,0,0,1,0-.51c0-.14,0-.28,0-.43L1.39,7.19c0-.17,0-.35,0-.52s0-.25,0-.38,0-.43,0-.64,0-.52,0-.78a5.81,5.81,0,0,1,0-.59c0-.12,0-.24,0-.36l0-.41a.05.05,0,0,0,0,0c.23,0,.47,0,.71,0l.44,0H2.9l.32,0,.33,0,.35-.05.37,0,.25-.07a.9.9,0,0,0,.16,0l.14,0a3.57,3.57,0,0,0,.35-.1l.54-.21.58-.18c.08,0,.14-.08.21-.11s.2-.07.3-.12a3.82,3.82,0,0,0,.46-.21c.12-.06.23-.16.37-.22a3.18,3.18,0,0,0,.43-.25l.23-.18.41-.32a.8.8,0,0,0,.13-.13C9,1,9.16.87,9.32.7S9.5.48,9.59.37,9.78.13,9.87,0a3.24,3.24,0,0,0,.29.34c.2.2.42.39.63.59a5.55,5.55,0,0,0,.92.67c.23.16.46.32.7.46a8.81,8.81,0,0,0,1,.49c.21.08.4.19.61.29l.58.25c.13.06.26.1.39.15a2.47,2.47,0,0,0,.29.06l.59.17a5,5,0,0,0,1,.17A5.31,5.31,0,0,0,18,3.57l.72-.1ZM13,18.13l.32-.23c.18-.13.35-.24.52-.38l.46-.37.37-.31.4-.4.45-.51.27-.35.36-.51a1.43,1.43,0,0,0,.12-.21c.05-.08.12-.14.17-.23.12-.24.24-.49.37-.73a3.17,3.17,0,0,0,.17-.38c.06-.12.09-.25.14-.38s.12-.3.16-.45.1-.42.16-.63.09-.33.12-.49l.15-.62c0-.17.07-.33.1-.5s0-.33.06-.48.06-.35.08-.52,0-.41,0-.61.06-.45.08-.67,0-.4,0-.6,0-.48,0-.72,0-.49,0-.73,0-.56,0-.83l0-1.15H17.08a4.29,4.29,0,0,1-.88,0C16,4,15.73,4,15.49,4a6.06,6.06,0,0,1-.61-.16l-.47-.13-.27-.1c-.17-.07-.32-.12-.49-.2s-.16-.1-.24-.13l-.65-.32a3.84,3.84,0,0,1-.39-.22L12,2.49a6.36,6.36,0,0,1-.55-.4c-.15-.11-.27-.24-.41-.35l-.38-.3-.25-.2L10.15,1C10.08.89,10,.8,9.94.72l-.42.53c-.11.12-.22.25-.35.38a5.48,5.48,0,0,1-.44.4,3.57,3.57,0,0,1-.38.25c-.36.21-.7.43-1.07.63a4.94,4.94,0,0,1-.57.26c-.25.11-.52.2-.78.3a4.75,4.75,0,0,1-1,.27l-.44.08c-.33.05-.67.1-1,.13a7.12,7.12,0,0,1-.8,0c-.2,0-.4,0-.59-.06l-.27,0a.34.34,0,0,1,0,.1c0,.14,0,.3,0,.44s0,.37,0,.55,0,.38,0,.57,0,.43,0,.65,0,.67,0,1c0,.15,0,.29,0,.44s0,.46.07.69.06.66.08,1c0,.18,0,.36.05.55s0,.2,0,.3.08.44.12.66l.08.41.11.44c0,.15.09.31.12.47s.06.28.1.42.2.54.3.83c0,0,0,.09,0,.12.09.19.17.38.27.57s.2.38.31.57l.14.21a1.65,1.65,0,0,0,.14.26,5,5,0,0,0,.34.46l.47.55c.09.11.19.2.29.31s.23.28.36.4.38.31.58.47l.56.43.51.36h0l.23.16a2,2,0,0,0,.31.19,3.36,3.36,0,0,0,.43.2l.58.28.42.16c.13.06.27.1.39.16l.43.14a.45.45,0,0,0,.22,0l.59-.19.18-.08.32-.1a4.69,4.69,0,0,0,.46-.21l.53-.24c.19-.09.37-.19.55-.29s.22-.15.34-.21,0,0,0,0Z" transform="translate(-1.29)"/><path class="cls-4" d="M12.72,6.13c0,.16.07.39.11.55s0,.31,0,.46,0,.45.05.68l.05.8c0,.16,0,.33,0,.5l0,.52a.45.45,0,0,1,0,.12c0,.14.06.23.14.34a3.08,3.08,0,0,1,.33.5,3.89,3.89,0,0,1,.29.66c.07.22.11.46.17.69a1.67,1.67,0,0,1,.06.63,2.62,2.62,0,0,1-.14.82c-.09.23-.17.47-.28.7s-.17.29-.25.43a2.66,2.66,0,0,1-.42.52,1.66,1.66,0,0,1-.44.35c-.15.08-.28.19-.42.27a.58.58,0,0,1-.22.08,1.61,1.61,0,0,0-.33.15,3.34,3.34,0,0,1-.68.21,1.41,1.41,0,0,1-.35.05c-.08,0-.14,0-.21,0a1.62,1.62,0,0,1-.22,0l-.32,0c-.12,0-.23,0-.35,0l-.21,0a1.43,1.43,0,0,1-.36-.06A2.3,2.3,0,0,1,8.47,16a2.88,2.88,0,0,1-.31-.13l-.23-.11-.32-.19a1,1,0,0,1-.16-.06l-.32-.23L7,15.15a1.6,1.6,0,0,1-.48-.49,3.25,3.25,0,0,1-.25-.45c-.07-.14-.11-.3-.18-.44a1.4,1.4,0,0,1-.11-.4c0-.14,0-.27-.07-.4s0-.33,0-.48,0-.2,0-.3A1.82,1.82,0,0,1,6,11.94c0-.1,0-.2,0-.3a1.27,1.27,0,0,1,.07-.24c.06-.18.12-.36.2-.54s.18-.3.27-.45.14-.24.22-.35a.86.86,0,0,1,.19-.19s0-.07,0-.09,0-.31,0-.46S7,9.08,7,9s0-.41,0-.61S7,8,7,7.84s0-.4,0-.6a4.93,4.93,0,0,1,0-.54,2.2,2.2,0,0,1,.07-.37c0-.13.11-.25.15-.39a1.35,1.35,0,0,1,.19-.38l.33-.41A1,1,0,0,1,8.05,5a2.48,2.48,0,0,1,.37-.17,1.35,1.35,0,0,1,.34-.11l.46-.07c.16,0,.32-.05.48-.05a2.93,2.93,0,0,1,.41,0,1,1,0,0,1,.18,0l.37,0,.28.06a1.14,1.14,0,0,1,.32.07,1.12,1.12,0,0,0,.26.08.91.91,0,0,1,.34.17,1.67,1.67,0,0,0,.26.17,1.16,1.16,0,0,1,.45.51,1.41,1.41,0,0,1,.15.45ZM8.37,9.62l-.16.08c-.12.07-.23.15-.36.21a2.43,2.43,0,0,0-.44.26s-.06.07-.1.1a5.92,5.92,0,0,0-.45.57,1.91,1.91,0,0,0-.34.72c0,.12,0,.23-.06.34a2.19,2.19,0,0,0,0,.36,4.34,4.34,0,0,0,0,.51,2.5,2.5,0,0,0,.06.38,3.09,3.09,0,0,0,.13.46A5.58,5.58,0,0,0,7,14.3a7.38,7.38,0,0,0,.5.64.31.31,0,0,0,.13.1,3.15,3.15,0,0,0,.3.24,2,2,0,0,0,.21.1,4,4,0,0,0,.5.26,2.11,2.11,0,0,0,.48.12c.22,0,.44,0,.67.05l.3,0,.63-.1a1.22,1.22,0,0,1,.26-.06,1.88,1.88,0,0,0,.56-.16,2.34,2.34,0,0,0,.53-.32,2.61,2.61,0,0,0,.27-.19,6.17,6.17,0,0,0,.43-.46c.11-.13.2-.27.31-.39a1.41,1.41,0,0,0,.21-.45c.08-.24.15-.46.21-.7a1.68,1.68,0,0,0,0-.74,3.36,3.36,0,0,0-.26-.94c-.06-.12-.12-.24-.17-.36a2.9,2.9,0,0,0-.2-.33,3.4,3.4,0,0,0-.23-.3,1.07,1.07,0,0,0-.16-.14,3.5,3.5,0,0,1-.3-.24,1.32,1.32,0,0,0-.42-.29l-.55-.21a1.92,1.92,0,0,0-.67-.15H9.68a4.51,4.51,0,0,0-.53.09,3.19,3.19,0,0,0-.44.13,1.1,1.1,0,0,1-.32.11s0,0,0,0ZM11.53,9c0-.15,0-.31,0-.46s.06-.48.06-.72a3.82,3.82,0,0,0-.07-.68,5.71,5.71,0,0,0-.21-.58.85.85,0,0,0-.37-.38A1.28,1.28,0,0,0,10.43,6a4.18,4.18,0,0,0-.51-.1,1.53,1.53,0,0,0-.52.05,1.19,1.19,0,0,0-.65.33.92.92,0,0,0-.21.55,5.7,5.7,0,0,0,0,.72c0,.2,0,.39,0,.59s0,.43,0,.65V9l.59-.09.38-.07h.29l.22,0h.93Zm1,.52c0-.19,0-.35,0-.52a2.44,2.44,0,0,0,0-.27c0-.12,0-.24,0-.36s0-.26,0-.39,0-.31,0-.45-.06-.4-.1-.6a4.41,4.41,0,0,0-.12-.59,3.29,3.29,0,0,0-.26-.49,2.24,2.24,0,0,0-.32-.37,1.08,1.08,0,0,0-.29-.18,2.24,2.24,0,0,0-.36-.14c-.2,0-.39-.09-.59-.12s-.25,0-.36,0a2.51,2.51,0,0,0-.67,0,.85.85,0,0,0-.35,0,.81.81,0,0,1-.31.05,1,1,0,0,0-.24.07,1.23,1.23,0,0,0-.25.14l-.2.2A.8.8,0,0,0,8,5.65a2.34,2.34,0,0,0-.26.43,3.62,3.62,0,0,0-.13.35c0,.11-.06.24-.09.36a.5.5,0,0,0,0,.13,4.15,4.15,0,0,1,0,.49c0,.15,0,.31,0,.46s0,.51,0,.77c0,0,0,0,0,.08,0,.21,0,.42,0,.63v.19a1.06,1.06,0,0,1,.2-.12L8,9.23s0-.07,0-.11a.77.77,0,0,0,0-.15c0-.15,0-.32,0-.47s0-.33,0-.49,0-.26,0-.37,0-.35,0-.52a1.38,1.38,0,0,1,.14-.7,1.47,1.47,0,0,1,.1-.22A.59.59,0,0,1,8.48,6l0,0A4,4,0,0,1,9,5.8a2.91,2.91,0,0,1,.59-.1,3.49,3.49,0,0,1,.56,0h.25c.13,0,.25.06.37.06a.5.5,0,0,1,.31.1,2.36,2.36,0,0,1,.46.36,1.88,1.88,0,0,1,.28.52,2.1,2.1,0,0,1,.06.24,2.75,2.75,0,0,1,.09.5c0,.25,0,.48,0,.73v.49c0,.14,0,.29,0,.44a.12.12,0,0,0,0,.06l.33.22S12.44,9.46,12.51,9.5ZM7.05,18.13h0s0,0,0,0Zm6,0s0,0,0,0h0A0,0,0,0,1,13,18.15Zm-3.6,1.13v0h0S9.42,19.28,9.42,19.28Zm1.25,0h0Z" transform="translate(-1.29)"/><path class="cls-4" d="M8.37,9.62s0,0,0,0h0S8.36,9.62,8.37,9.62Z" transform="translate(-1.29)"/><path class="cls-5" d="M10,9a3.63,3.63,0,0,0-2.26,6.48A1.23,1.23,0,0,0,8.91,17,1.22,1.22,0,0,0,10,16.28,3.64,3.64,0,0,0,10,9Z" transform="translate(-1.29)"/><path class="cls-6" d="M12.1,12.08a2.21,2.21,0,0,0-4.3,1h0l0,.08s0,0,0,.06,0,0,0,.06l.6,2.3a.88.88,0,0,0,1.07.63l-.4-1.54a2.21,2.21,0,0,0,3-2.57Zm-1.81,1.8a1.28,1.28,0,1,1,.93-1.56A1.3,1.3,0,0,1,10.29,13.88Z" transform="translate(-1.29)"/></svg>