<svg id="Layer_1" data-name="Layer 1" xmlns="http://www.w3.org/2000/svg" viewBox="0 0 20.4 21.98"><defs><style>.cls-1{fill:#f96611;}.cls-2{fill:#fff;}.cls-3{fill:#7b7089;}.cls-4{fill:#9d95a7;}.cls-5{fill:#41364f;}</style></defs><title>support</title><path class="cls-1" d="M14.2,7.9a.37.37,0,0,0-.1-.3c-.1-.1-.2-.1-.3-.2s-.1-.1-.2-.1-.2-.1-.3-.2-.1-.1-.2-.1-.2-.1-.3-.2a.76.76,0,0,1-.4-.2l-.6-.2c-.1,0-.2-.1-.3-.1h-.3a1.27,1.27,0,0,0-.6-.1c-.1,0-.3-.1-.4-.1h-.1c.1-.1,0-.1-.1-.1H9.8V5.8c-.1,0-.1,0-.2-.1s-.1-.1,0-.1,0-.2-.1-.3a.6.6,0,0,1-.1-.4V4.5a.6.6,0,0,0-.4.1c-.3,0-.6.1-.9.1H7.8c-.2.1-.4.1-.6.2s-.3.2-.5.3c-.4.2-.8.4-1.3.6a3.7,3.7,0,0,1-1.1.5c-.3.2-.6.3-.9.5h0l-.2.1V7H3a3.08,3.08,0,0,1-1.2.5.1.1,0,0,1-.1-.1l-.5.1v.3c.1.3.1.6.2.9s.2.5.3.7a1,1,0,0,0,.4.5V10c.1,0,.1.1.2.1l.1.1c.1,0,.2.1.3.2s.3.2.4.3.2.2.3.2.2.2.3.2c.1.2.3.3.4.4s.1.1.1.2v-.1l.3.4v-.1c.2,0,.2.1.3.1s.4.3.6.4a1.38,1.38,0,0,1,.3.4l.4.5c.1.1.1.1.2.1a.35.35,0,0,0,.2.1c.1,0,.2-.2.4-.1s.1-.1.2-.1.3-.2.4-.4.4-.3.5-.5a.52.52,0,0,0,.2-.4q.15-.3.3-.3a.1.1,0,0,0,.1-.1c.1-.2.2-.3.3-.5s.3-.4.4-.6h0c.1-.1.2-.3.3-.4a1.38,1.38,0,0,0,.3-.4c.1-.1.2-.3.4-.4l.6-.6.3-.3c.1-.1.2-.2.3-.2a.1.1,0,0,0,.1-.1c0-.1.1-.2.2-.3a.35.35,0,0,1,.2-.1h.2c.1,0,.2-.1.3-.1s.1-.1.2-.1.2.1.3.2c-.1.2.1.3.3.3s.3.1.4.2a.1.1,0,0,1,.1.1.6.6,0,0,0,.4-.1Z" transform="translate(0.1 -0.02)"/><path class="cls-2" d="M19.6,1.6l-.1-.1a.37.37,0,0,1-.3-.1c-.1,0-.2.1-.3.1s-.1,0-.1.1a.1.1,0,0,1-.1.1h-.1c-.1,0-.1.1-.2.2a.35.35,0,0,0-.2.1c-.2.1-.3.3-.5.5l-.3.3a2.18,2.18,0,0,1-.5.4c-.1.1-.2.1-.3.2s-.3.3-.5.4h0V3.7c0-.1.1-.2,0-.2s-.1-.1-.1-.2V1.2h-.4c-.1,0-.1,0-.1.1s-.2.3-.3.4-.3.2-.4.3h-.2a.1.1,0,0,1-.1.1h0a7,7,0,0,0-1.4-.3h-.6c-.1,0-.1,0-.1-.1l-.1-.1H12c-.1,0-.2,0-.2-.1A4.25,4.25,0,0,1,11.6.4c0-.2-.2-.2-.4-.1s-.1.1-.2.1-.2.1-.3.1c-.1.2-.2.3-.3.5s-.1.2-.1.4-.1.2-.1.3-.1.3-.2.4c.1.2,0,.4-.1.7-.1.1-.1.2-.2.4a1.27,1.27,0,0,1-.1.6c0,.1-.1.2-.1.4s-.1.2-.1.4V5a.37.37,0,0,0,.1.3.37.37,0,0,1,.1.3v.1a.35.35,0,0,0,.2.1c.1,0,.2.1.3.1h0c.1,0,.1.1.2.1h0a.1.1,0,0,1,.1.1h.1l.1-.1h.3c.1,0,.3.1.4.1a.76.76,0,0,1,.4.1c.1,0,.2.1.2,0h.2c.2,0,.4.1.6.1s.2.1.3.2.1.2.2.2c.3.1.5.2.8.3h.1c.1-.1.1-.2.2-.4.1,0,.2.1.3.1h0c.1,0,.1-.1.2-.2s.2-.1.2-.2.1-.2.2-.3a.1.1,0,0,1,.1-.1h.1c.1,0,.2-.1.3-.1l.1-.1c.1-.1.2-.1.2-.2.2-.1.3-.2.5-.3h0c.1-.1.2-.1.2-.2a4.35,4.35,0,0,1,.7-.6l.4-.4a2.65,2.65,0,0,0,.5-.6c.2-.3.4-.5.6-.8a2.51,2.51,0,0,0,.4-.7c.5-.1.4-.2.3-.3ZM12.5,4.4a.76.76,0,0,1-.5.2.76.76,0,0,1-.4-.2l-.3-.3c-.2-.2-.1-.3,0-.4a.91.91,0,0,1,.7-.3h0c.2.1.5.2.6.4A.61.61,0,0,1,12.5,4.4Zm2.5.5c-.2,0-.4,0-.5-.2l-.1-.1c-.3-.2-.2-.6.1-.8a.35.35,0,0,0,.2-.1.44.44,0,0,1,.5.1c.2.1.3.2.3.4h0C15.6,4.5,15.3,4.8,15,4.9Zm-2.3,3c.2.1.4.1.6.2s.3.1.4.2a.1.1,0,0,1,.1.1c.1.1.3.2.4.4a1.76,1.76,0,0,1,.4.5c.2.2.3.4.5.6a.35.35,0,0,0,.2.1.37.37,0,0,1,.3.1h.2c.1-.1.2-.1.4-.2s.1-.1.2-.2.2-.1.3-.2.3-.2.3-.3a.78.78,0,0,1,.4-.4c.1-.1.3-.1.4-.2s.2,0,.3,0a1.76,1.76,0,0,1,.4.5v.1a.37.37,0,0,1-.1.3c-.1.1-.1.2-.2.3s-.1.1-.2.2-.1.1-.1.2-.2.1-.2.2-.2.1-.3.2-.2.2-.3.2-.3.1-.5.2-.2.1-.3.2-.2.1-.4,0h-.1c-.1,0-.2.1-.3.1h-.2a1.27,1.27,0,0,1-.6-.1c-.2-.1-.4-.1-.5-.2a1.42,1.42,0,0,0-.6-.2l-.3-.3-.3-.3h0c-.2.4-.4.9-.6,1.3l-.3.6c-.1.1-.1.1-.2,0s-.1-.1-.2-.1h-.1a.52.52,0,0,0-.4-.2,1.42,1.42,0,0,1-.6-.2h-.4c-.2,0-.3-.1-.5-.2h0l-.1-.1a.76.76,0,0,0-.4-.2L9.1,11c0-.1,0-.1.1-.2s.1-.1.1-.2.2-.3.3-.4a1.38,1.38,0,0,0,.3-.4c.1-.1.2-.3.4-.4l.6-.6a.35.35,0,0,0,.1-.2c.1-.1.2-.2.3-.2a.1.1,0,0,0,.1-.1c0-.1.1-.2.2-.3a.35.35,0,0,1,.2-.1H12c0,.1.1.1.2.1h.2a.37.37,0,0,0,.3-.1Z" transform="translate(0.1 -0.02)"/><path class="cls-3" d="M9.6,11.4h0l.1.1a.22.22,0,0,0,.2.2,1.42,1.42,0,0,1,.6.2l.6.3c.2.1.4.1.6.2s.1.1.2.2v.1a.1.1,0,0,1-.1.1l-.1.1a.9.9,0,0,1-.5-.1h-.1c-.1.1-.2,0-.3,0s-.1,0-.2.1-.1.1-.1.2,0,.1-.1.1a.37.37,0,0,0-.1.3l-.1.1c0,.1-.1.2,0,.3l.3.4.1.1c.1,0,.2.1.1.2v.1h-.1a.35.35,0,0,0-.2.1l-.1.1a.6.6,0,0,0-.4.1v.1c-.1,0-.1.1-.2.1s-.1,0-.2.1-.2,0-.2.1H9.1c-.1,0-.2.1-.3,0H8.4a.75.75,0,0,1-.5-.1,4.33,4.33,0,0,1-.5-.1H7.3c0-.1-.1-.1-.1-.2v-.2c0-.1.1-.2,0-.2v-.3a.37.37,0,0,0-.1-.3L7,13.9v-.2c.1-.1.3-.2.4-.4s.4-.3.5-.5c.1-.4.1-.5.2-.6s.2-.3.3-.3a.1.1,0,0,0,.1-.1h.1c.1-.1.2-.1.3-.2a.37.37,0,0,1,.3-.1h.1C9.5,11.5,9.5,11.4,9.6,11.4Z" transform="translate(0.1 -0.02)"/><path class="cls-2" d="M7,13.4v.2c0,.1,0,.1.1.1a.37.37,0,0,1,.1.3,2.18,2.18,0,0,1-.9.7c-.1.1-.2.1-.3.2s-.4.1-.6.2a1.42,1.42,0,0,1-.6.2c-.2.1-.4.1-.6.2h0a2.77,2.77,0,0,1-.9.1H3.1c-.1.1-.3,0-.4,0H2.6c-.2.1-.4-.1-.6-.1s-.2-.1-.4-.2L1,15H.9c.1-.1.1-.1.1-.2v-.1l-.1-.1c-.1-.1-.1-.2-.2-.3s-.2-.3-.3-.5l-.1-.1c0-.1-.1-.1,0-.2v-.2a2.35,2.35,0,0,1-.2-.8c0-.1,0-.1.1-.1s.1-.1.1-.2a.76.76,0,0,1,.2-.5c-.1-.1,0-.1,0-.2a.1.1,0,0,0,.1-.1c.1,0,.1-.1.2,0a1.55,1.55,0,0,1,.3.6c.1.1.1.3.2.4a2.2,2.2,0,0,1,.1.8.37.37,0,0,0,.1.3c.2.1.3.3.4.4l.2.2h0c.2,0,.4.1.7.1H3.9a1.27,1.27,0,0,0,.6-.1.82.82,0,0,0,.7-.1l.3-.3a1,1,0,0,0,.5-.4c.1.1.1.1.2.1a.35.35,0,0,0,.2.1c.1,0,.2-.2.4-.1Z" transform="translate(0.1 -0.02)"/><path class="cls-3" d="M5.8,21.9a2.19,2.19,0,0,1-.5-.3c-.2-.2-.3-.3-.3-.4l-.1-.1c-.1-.1-.1-.2-.2-.3a.1.1,0,0,0-.1-.1c0-.1-.1-.1-.1-.2s0-.1-.1-.2a.19.19,0,0,1,0-.3v-.1a.52.52,0,0,1,.2-.4c0-.1.1-.1.1-.2.2-.2.3-.3.3-.4a1.38,1.38,0,0,1,.3-.4l.1-.1a.1.1,0,0,1,.1-.1c.1,0,.1-.2.2-.1s.1-.1,0-.2v-.2h.1c.2-.1.3-.1.5-.2s.1,0,.2-.1h.1c.1-.1.1,0,.2.1s.3.3.5.4l.6.3h0l.1.1v.3c-.1,0-.2.1-.4.1a.1.1,0,0,0-.1.1.37.37,0,0,0-.1.3H7.3c-.1.2-.2.3-.3.5s-.3.2-.4.4v1.2a.76.76,0,0,1-.2.4.1.1,0,0,0-.1.1v.1H6l-.1.1c0-.1,0-.1-.1-.1Zm7.4-4.8a.31.31,0,0,0-.1.2.1.1,0,0,1-.1.1c-.1.1-.1.2-.2.2v.1c-.1.2-.3.3-.4.5a.37.37,0,0,0-.1.3c0,.1.1.2.1.3s.1.2.1.4v.7a.38.38,0,0,1-.5.3.9.9,0,0,0-.5-.1c-.1-.1-.3-.1-.4-.2a.1.1,0,0,1-.1-.1c-.1-.2-.2-.3-.3-.5a.37.37,0,0,1-.1-.3.6.6,0,0,0-.1-.4c0-.2-.1-.4-.1-.6s0-.2.1-.2l.1-.1c.1-.1.1-.2.2-.3s.1-.2.2-.3.2-.3.3-.5.1-.3.2-.5,0-.2.1-.2a1.38,1.38,0,0,0,.3-.4.19.19,0,0,1,.3,0,2.19,2.19,0,0,0,.5.3l.6.3c.1.1.3.1.4.3v.2a.22.22,0,0,1-.2.2c-.2.2-.3.2-.3.3Z" transform="translate(0.1 -0.02)"/><path class="cls-2" d="M14,14c.1,0,.1,0,.1-.1s.1-.1,0-.2a.35.35,0,0,0-.2-.1l-.6-.3c-.3-.1-.6-.3-.9-.4a6.37,6.37,0,0,0-.7-.2l-.1.1a.9.9,0,0,1-.5-.1H11c-.1.1-.2,0-.3,0a.1.1,0,0,1-.1.1c-.1.1-.2.1-.2.2s0,.1-.1.1c-.1.2-.1.4-.2.5l-.1.1.3.4.1.1c.1,0,.2.1.1.2v.1h.2c.1,0,.2-.1.3-.1s.4.1.6.1.4.1.6.2l.1.1a.1.1,0,0,1-.1.1v.2c.1,0,0,.1,0,.2s0,.1-.1.1a.37.37,0,0,0-.1.3c.1.1.2.1.3.2h0c0,.1.1.1.2.1a1.42,1.42,0,0,0,.6.2h0c.1.1.2,0,.3,0s.3-.2.3-.4.1-.4.2-.6a1.48,1.48,0,0,0,.1-.7c.3-.2.3-.4,0-.5Zm-3.4.4ZM9.3,15.5c0-.1-.2-.2-.3-.2-.3,0-.6.1-.8,0H7.5a4.88,4.88,0,0,0-.3.7c-.1.2-.2.5-.3.7s-.1.2-.2.3-.1.4-.3.5v.1h.1c.1-.1.1,0,.2.1s.3.3.5.4l.6.3h0a.68.68,0,0,1,.3-.4c.1-.1.2-.2.3-.2h0c.1-.1.2-.2.2-.3l.3-.6c.1-.2.2-.5.3-.7A2,2,0,0,0,9.3,15.5Z" transform="translate(0.1 -0.02)"/><path class="cls-4" d="M5.8,21.9h0c.1,0,.1,0,.2.1-.1,0-.2,0-.2-.1Z" transform="translate(0.1 -0.02)"/><path class="cls-2" d="M10.6,14.5h0Zm-6.3,1Z" transform="translate(0.1 -0.02)"/><path class="cls-3" d="M10.6,14.4Z" transform="translate(0.1 -0.02)"/><path class="cls-5" d="M20,1.8c0-.2-.3-.5-.5-.6s-.3,0-.4,0a.85.85,0,0,0-.5.3.78.78,0,0,0-.4.4l-.5.5a1.38,1.38,0,0,1-.4.3,4.23,4.23,0,0,0-.7.5,1.76,1.76,0,0,0-.5.4V3.2c0-.2.1-.4.1-.6V1.4a.37.37,0,0,0-.1-.3.47.47,0,0,0-.6-.1.1.1,0,0,0-.1.1l-.4.4c-.1.1-.2.3-.3.4a.9.9,0,0,0-.5-.1c-.3-.1-.6-.1-1-.2a2,2,0,0,0-1.1,0c-.1,0-.1,0-.1-.1V.8a.86.86,0,0,0-.3-.6c-.1-.1-.1-.1-.2-.1S11,0,11,.1s-.2.2-.2.3c-.1.3-.3.5-.4.8l-.3.6-.3.6c-.1.2-.1.4-.2.5a2.92,2.92,0,0,0-.2.9,1.27,1.27,0,0,1-.1.6H8.5a1.42,1.42,0,0,0-.6.2,4.88,4.88,0,0,0-.7.3,6.89,6.89,0,0,0-1,.4,1.42,1.42,0,0,0-.6.2c-.4.2-.7.4-1.1.6a2,2,0,0,1-.8.4,4.88,4.88,0,0,1-.7.3,2.19,2.19,0,0,1-.5.3c-.3.1-.6.1-.9.2a.76.76,0,0,0-.5.2v.2c0,.1-.1.2,0,.3s.1.3.1.4a.37.37,0,0,0,.1.3c.1.2.1.4.2.5a2.51,2.51,0,0,0,.4.7c-.1,0,.1.1.2.2s.3.2.4.3.3.2.4.3a1,1,0,0,0,.5.4l.2.2c.2.2.4.3.6.5a1.38,1.38,0,0,0,.4.3c.1.1.3.2.4.3s.4.3.5.5l.3.3s.1.1,0,.1-.1.1-.2.1c-.3.1-.6.3-.9.4a2.92,2.92,0,0,1-.9.2H3.3a1.73,1.73,0,0,1-1-.1,1,1,0,0,1-.5-.4,2.19,2.19,0,0,1-.3-.5c-.1-.2-.1-.4-.2-.6v-.5a.91.91,0,0,0-.3-.7.48.48,0,0,0-.6-.1l-.3.3a.76.76,0,0,0-.2.5V13c0,.2.1.4.1.6a4.88,4.88,0,0,0,.3.7.35.35,0,0,0,.1.2c.2.3.3.5.4.5s.4.3.6.4a1.69,1.69,0,0,0,.5.2,1.27,1.27,0,0,0,.6.1,3.35,3.35,0,0,0,1,0c.2,0,.4-.1.6-.1a2.28,2.28,0,0,0,1.1-.3c.2-.1.5-.2.7-.3.1.1.3,0,.4,0s.3-.2.4-.3.1-.1.1,0h0a.1.1,0,0,0,.1.1l.3.3c.1,0,.1.1,0,.2a1.64,1.64,0,0,1-.2,1l-.6.9H6.2a.1.1,0,0,0-.1.1c-.1.1-.2.1-.3.2s-.3.4-.5.6-.1.2-.2.2l-.4.4c-.1.2-.3.3-.4.5l-.3.3H4a3.38,3.38,0,0,0,1.5,2.3H6a1,1,0,0,0,.5-.4,2.72,2.72,0,0,0,0-.9.9.9,0,0,0-.1-.5v-.1c.4.1.5,0,.6-.1l.6-.6a4.62,4.62,0,0,1,.7-.7.19.19,0,0,0,0-.3c0-.1.1-.1.1-.2a2.51,2.51,0,0,0,.4-.7c.1-.1.2-.3.4-.4a2.12,2.12,0,0,0,.3-.7.9.9,0,0,1,.1-.5v-.3h.1c.2-.1.4-.1.6-.2s.3-.2.5-.3.3-.2.4-.3h.1c.3.1.6.1.8.2l.3.1-.3.6c-.3,0-.4,0-.5.2s-.3.7-.5,1a4.13,4.13,0,0,1-.7,1.1,1.69,1.69,0,0,0-.2.5v.1c.1.2.1.4.2.6a4.05,4.05,0,0,0,.5.9c.1.1.1.2.2.2s.2.2.3.2a.6.6,0,0,0,.4.1c.1,0,.3.1.4.1s.1,0,.2-.1a.1.1,0,0,0,.1-.1h0l.2-.2a.9.9,0,0,0,.1-.5,1.7,1.7,0,0,0-.1-.7c0-.2-.1-.3-.1-.4v-.1a.1.1,0,0,0,.1-.1c.1-.1.1-.2.2-.3l.4-.5c.1-.1.1-.2.2-.3a1.38,1.38,0,0,0,.3-.4l.3-.3-.1-.1c.1-.1.2-.2.2-.3s.1-.2.2-.3.1-.1.1-.2l.1-.2c0-.1.1-.2.1-.4h0c0-.2.1-.3.1-.5v-.3a1.16,1.16,0,0,0-.5-.7,3.13,3.13,0,0,0-1-.5c-.1,0-.3-.1-.4-.1s-.4-.1-.6-.1a18.94,18.94,0,0,0,.9-2.1c.1.1.2.1.3.2a4.35,4.35,0,0,0,.7.4c.4.1.7.3,1.1.4a1.18,1.18,0,0,0,1-.1,4.19,4.19,0,0,0,1.4-.9,3.45,3.45,0,0,0,.8-.9.62.62,0,0,0,.2-.7.62.62,0,0,0-.4-.6.85.85,0,0,0-.7,0c-.3.1-.4.3-.6.4a5,5,0,0,1-.8.7.37.37,0,0,1-.6,0c-.2-.1-.3-.3-.4-.4a4.35,4.35,0,0,1-.6-.7l.1-.1c.1-.1,0-.3,0-.4a1.42,1.42,0,0,0-.2-.6V7.3c.3-.2.5-.4.8-.6s.7-.6,1.1-.9a8.65,8.65,0,0,1,1-.7c.2-.1.4-.3.6-.4s.5-.4.7-.6a4.62,4.62,0,0,0,.7-.7,4.35,4.35,0,0,0,.6-.7l.3-.6V1.9L20,1.8ZM7.1,13.8a.71.71,0,0,1-.3.6c-.2.1-.3.2-.5.3a4.88,4.88,0,0,0-.7.3l-.9.3c-.3.1-.5.1-.8.2H3.4a5,5,0,0,1-1.2-.2,4.05,4.05,0,0,1-.9-.5,2.65,2.65,0,0,1-.5-.6l-.3-.6a2.2,2.2,0,0,1-.1-.8v-.6a.37.37,0,0,1,.1-.3c0-.1.1-.2.2-.3a.19.19,0,0,1,.3,0,.76.76,0,0,0,.2.4v.7c0,.2.1.4.1.6s.1.3.2.5.3.5.6.6a1.69,1.69,0,0,0,.5.2h.7c.3,0,.6-.1.9-.1a1.42,1.42,0,0,1,.6-.2c.2-.2.4-.2.5-.3a1.79,1.79,0,0,0,.7-.5h.1c.2.1.3.2.5.2h.2a.35.35,0,0,1,.2-.1.31.31,0,0,1,.1.2Zm-.4-.4h0a3,3,0,0,1-1.1-.7L5,12.1l-.4-.4c-.1-.1-.3-.2-.4-.4L3.9,11c-.1-.1-.3-.2-.4-.3a1,1,0,0,1-.5-.4c-.1,0-.1-.1-.2-.1s-.1-.1-.2-.1-.3-.3-.4-.4-.2-.3-.3-.5-.3-.4-.3-.6a2.2,2.2,0,0,1-.1-.8l.1-.1c.1,0,.2-.1.3-.1.3-.1.6-.1.9-.2A6.12,6.12,0,0,1,4,6.9l1.2-.6c.4-.2.7-.4,1.1-.6s.8-.3,1.2-.5A1.42,1.42,0,0,1,8.1,5a.75.75,0,0,1,.5-.1c.1,0,.2-.1.3-.1h.3c.2,0,.2,0,.2.2s.1.3.1.5a.35.35,0,0,0,.1.2c0,.1,0,.1-.1.1s-.4.1-.7.1a.31.31,0,0,0-.2.1.37.37,0,0,0,.3.1H10a4.25,4.25,0,0,1,1.1.2l1.1.3a2.73,2.73,0,0,1,1.2.6c.2.2.4.3.5.6.1.1.3.2.2.5L13.8,8a6.89,6.89,0,0,0-.8-.3H11.8a1.85,1.85,0,0,0-.7.2l-.6.3c-.2.1-.4.3-.6.4s-.2.3-.3.5c-.1,0-.1.1-.1.2l-.1.1h.1v.1c.5-.3.9-.6,1.4-.9h0l-.5.5c-.2.3-.4.5-.6.8l-.6.9c-.1.2-.3.4-.4.6s-.3.3-.4.5a2.19,2.19,0,0,0-.5.3l-.4.4a1.38,1.38,0,0,0-.3.4C7,13.2,6.8,13.3,6.7,13.4Zm.5,5.7c-.2.3-.4.5-.6.8-.1,0-.1.1-.2.1a.37.37,0,0,0-.1.3v.9c0,.2-.1.3-.2.5s-.2.1-.4,0-.2-.1-.3-.1-.1,0-.2-.1-.2-.2-.2-.3a.37.37,0,0,0-.1-.3c-.1-.2-.1-.3-.2-.5s-.1-.3-.2-.5-.1-.2,0-.3l.2-.2.4-.4.6-.6A1.38,1.38,0,0,1,6,18c.1-.1.2-.3.3-.4.5.3,1,.5,1.5.8a4.35,4.35,0,0,0-.6.7ZM9,16a1.09,1.09,0,0,1-.1.5c-.1.1-.1.3-.2.4s-.1.1-.1.2v.1A5.55,5.55,0,0,0,8,18H7.7a.76.76,0,0,0-.4-.2l-.6-.3v-.1c0-.1.1-.1.1-.2l.5-.5c.1-.1.1-.3.2-.3V15.2h.1c.1.1.1.1.3.1a.9.9,0,0,1,.5.1h.7a.1.1,0,0,1,.1.1c-.1.1-.1.3-.2.5Zm.8-1.2A2.35,2.35,0,0,1,9,15H8.4a2.92,2.92,0,0,1-.9-.2.76.76,0,0,1-.4-.2v-.1c.1-.1.1-.2.2-.3a.9.9,0,0,0,.1-.5.37.37,0,0,0-.1-.3v-.1a6,6,0,0,0,.8-.8c.2-.2.3-.4.5-.5a2.18,2.18,0,0,0,.4-.5,4.87,4.87,0,0,1,1.1.4c.3.1.5.2.8.3s.3.1.5.2.1.1.2.1.1.1.2,0c0,.1,0,.1-.1.2h-.1a1.27,1.27,0,0,1-.6-.1.44.44,0,0,0-.5.1c-.1.1-.2.2-.2.3s-.1.2-.2.3a1.27,1.27,0,0,0-.1.6.37.37,0,0,0,.1.3l.2.2a.35.35,0,0,0,.2.1C10.3,14.6,10,14.7,9.8,14.8ZM13,17.1c-.1.2-.3.3-.4.5l-.5.7v.2c0,.3.1.5.1.8v.4c0,.2-.1.4-.3.4a.75.75,0,0,1-.5-.1,2.65,2.65,0,0,1-.5-.6c0-.1-.1-.1-.1-.2-.1-.3-.3-.6-.4-.9-.1-.1,0-.2,0-.3l.3-.6.3-.6.2-.3.3-.6c.1-.1.1-.2.2-.3.5.3,1.1.5,1.6.8C13.2,16.7,13.2,16.9,13,17.1Zm-.4-3.9.9.3a2.65,2.65,0,0,1,.6.5.44.44,0,0,1,.1.5,2.35,2.35,0,0,1-.2.8l-.3.6c-.1.1-.1.1-.1.2l-1.2-.6.3-.6h.5c.1-.1.1-.1,0-.2s-.3-.2-.5-.2a2.35,2.35,0,0,0-.8-.2,1.48,1.48,0,0,0-.7-.1c-.1,0-.3-.1-.4-.1h-.1c-.1,0-.1,0-.1-.1a1.14,1.14,0,0,1,.3-.8.52.52,0,0,1,.4-.2h.4a5.07,5.07,0,0,1,.9.2Zm2.2-3.5a1.22,1.22,0,0,0,1.6,0c.2-.2.4-.3.6-.5a2.65,2.65,0,0,1,.6-.5h0a.31.31,0,0,0-.1.2.1.1,0,0,0,.1.1c.1,0,.1-.1.2-.2l.2-.2a.19.19,0,0,1,.3,0c-.3.1-.4.4-.6.6a.19.19,0,0,0,.3,0c.1-.1.2-.1.3-.2a.52.52,0,0,1-.2.4c-.1.1-.1.2-.2.3a4.35,4.35,0,0,1-.7.6,3.88,3.88,0,0,1-1.1.6c-.2.1-.5.1-.8.2a2.92,2.92,0,0,1-.9-.2,5.39,5.39,0,0,1-1.3-.7,1.76,1.76,0,0,1-.5-.4c-.1-.1-.2-.1-.4-.2-.1.1,0,.4.1.5s.2.1.3.2v.1a4.88,4.88,0,0,1-.3.7,5.94,5.94,0,0,1-.4.8.1.1,0,0,1-.1.1,3.7,3.7,0,0,0-1.1-.5c-.4-.1-.8-.2-1.1-.3-.1,0-.2-.1-.4-.1a3,3,0,0,0,.5-.7c.2-.2.3-.5.5-.7s.4-.5.6-.7l.6-.6c.1-.1.1-.1.2-.1s.2-.1.3-.2.2-.1.4-.1H13c.1,0,.1,0,.2.1s.3.2.4.3l.4.4c.4.4.6.7.8.9Zm.1-3.5c-.1.1-.2.3-.4.4A2.18,2.18,0,0,1,14,7h-.1c-.2-.1-.4-.3-.6-.4s-.5-.2-.8-.3a4.88,4.88,0,0,1-.7-.3c-.3-.1-.6-.1-.9-.2l-.8-.1H10c-.2,0-.2-.1-.2-.2a2.15,2.15,0,0,1,0-.8,4.48,4.48,0,0,1,.1-1.1,7.84,7.84,0,0,1,.5-1.4l.3-.9a3.55,3.55,0,0,1,.4-.9.1.1,0,0,1,.1-.1c.1-.1.2-.1.2.1s.1.3.2.4,0,.1.1.2.1.2.1.3a2,2,0,0,0,.1.7h.9a2,2,0,0,1,.8.1c.2,0,.4.1.6.1l.6.2h.1c.1-.2.3-.3.4-.5a2.18,2.18,0,0,1,.4-.5l.1-.1A12.29,12.29,0,0,1,15.6,4c-.1,0-.2-.1-.3-.1a2.2,2.2,0,0,0-.8-.1c-.2,0-.3.1-.5.3s-.1.4-.1.5c.1.3.4.4.7.5H15a.37.37,0,0,0,.3-.1.6.6,0,0,1-.1.4,1.6,1.6,0,0,1-.3.8Zm.4-2a.37.37,0,0,0-.4-.4,1.42,1.42,0,0,1,.6.2.38.38,0,0,1-.1.6c-.1.1-.2.1-.3.2h-.2A.55.55,0,0,0,15.3,4.2Zm4.2-1.9c-.2.2-.3.5-.5.7a2.34,2.34,0,0,1-.7.7l-.6.6c-.1.1-.3.2-.4.3s-.3.3-.5.4l-1.1.8-.2.2h-.1c.1-.3.3-.6.4-.9a2.92,2.92,0,0,0,.2-.9V4.1c-.1-.1,0-.1.1-.2.3-.2.5-.4.8-.6a5.55,5.55,0,0,0,.8-.6l.5-.5c.2-.2.4-.3.6-.5h0c0,.1-.1.1-.1.2l.1.1h.1c.1-.2.3-.3.4-.4s.1,0,.2.1-.1.1-.1.1l-.4.4c-.1.1,0,.1.1.1h.1l.3-.3h.1C19.6,2.1,19.5,2.2,19.5,2.3Z" transform="translate(0.1 -0.02)"/><path class="cls-5" d="M11,8.6Zm.6-5.3a1.69,1.69,0,0,1,1,.3.52.52,0,0,1,.2.4.76.76,0,0,1-.2.5c-.2.1-.3.1-.5.2s-.7-.1-1-.2a.52.52,0,0,1-.2-.8.75.75,0,0,1,.7-.4Zm.6.3c.2.4,0,.6-.3.8h.2c.2-.1.4-.2.4-.4A.54.54,0,0,0,12.2,3.6Zm0,0Zm1.1.6c.1,0,.3.1.4.1a.19.19,0,0,1,.1.3l-.3.3c-.1.1-.3.2-.4.1L13,4.9V4.4C13,4.3,13,4.2,13.3,4.2Zm-.9,1,.1-.1a.35.35,0,0,1,.2.1.31.31,0,0,0,.1.2.37.37,0,0,0,.1.3c.2.1.3.1.4-.1l.2-.2a.1.1,0,0,1,.1-.1s.2,0,.1.1v.1a.55.55,0,0,1-.5.3.37.37,0,0,1-.3-.1C12.6,5.7,12.4,5.6,12.4,5.2Z" transform="translate(0.1 -0.02)"/><path class="cls-2" d="M8.3,6.8a2.29,2.29,0,0,0-2.9.4A2,2,0,0,0,5.1,9C5,9,5,9,5,9.1a.77.77,0,0,0,.1,1,.75.75,0,0,0,.8.1,2.29,2.29,0,0,0,2.9-.4A2.3,2.3,0,0,0,8.3,6.8Z" transform="translate(0.1 -0.02)"/><path class="cls-1" d="M8.2,8.9a1.25,1.25,0,0,0-.7-1.6,1.3,1.3,0,0,0-1.6.6h0L5.4,9.2a.45.45,0,0,0,.3.6L6,9.1a1,1,0,0,0,.6.5A1.26,1.26,0,0,0,8.2,8.9Zm-1.4.2a.63.63,0,0,1-.4-.9c.1-.4.6-.5,1-.4a.63.63,0,0,1,.4.9A1,1,0,0,1,6.8,9.1Z" transform="translate(0.1 -0.02)"/></svg>