<svg id="Layer_1" data-name="Layer 1" xmlns="http://www.w3.org/2000/svg" viewBox="0 0 20 20"><defs><style>.cls-1{fill:#7b7089;}.cls-2{fill:#c5bccf;}.cls-3{fill:#f96611;}.cls-4{fill:#7b7088;}.cls-5{fill:#7c718a;}.cls-6{fill:#7d728a;}.cls-7{fill:#857a92;}.cls-8{fill:#41364f;}</style></defs><title>shipping</title><path class="cls-1" d="M18.63,13.49c0,.15-.08.23-.21.18s-.11-.13-.13-.22,0-.41-.3-.53c-.09-.05-.15-.26-.16-.4,0-.39,0-.79,0-1.18a.88.88,0,0,0-.12-.32,2.07,2.07,0,0,1-.18-.88,1.44,1.44,0,0,0-.32-.81A1.24,1.24,0,0,1,17,8.14a5.82,5.82,0,0,1,.34-.58c0-.09.06-.19.1-.29s.07,0,.09-.06a2.65,2.65,0,0,1,.37-.38,4.79,4.79,0,0,1,.53-.34.21.21,0,0,0,.08-.3.82.82,0,0,0-.73-.54,2.88,2.88,0,0,0-1.16.25,1.17,1.17,0,0,1-.94-.06,1.76,1.76,0,0,1-.46-.48,4.94,4.94,0,0,1-.35-.64c-.17-.32-.32-.66-.52-1-.06-.08-.22-.1-.32-.17a2.8,2.8,0,0,1-.65-.39,3.67,3.67,0,0,1-.54-.75c-.11-.19-.16-.43-.26-.62s-.35-.53-.51-.8,0-.25.17-.29l.09,0L11.67.55A5.58,5.58,0,0,0,10,.25a1.43,1.43,0,0,1-.22,0H9.12l-.36,0c-.51.08-1,.13-1.51.23S6.52.7,6.14.8C6.09.81,6,.74,6,.71s-.13,0-.13,0a.6.6,0,0,0-.06.19s0,.06,0,.08h0l0-.1h0c0,.08-.11.14-.17.22s0,.21,0,.31a1.2,1.2,0,0,0-.06.41,5.91,5.91,0,0,0,.19.69,2.54,2.54,0,0,1,.17.46,4,4,0,0,1,0,.84,1.8,1.8,0,0,1-.17.51c-.1.18-.23.34-.33.52a5.61,5.61,0,0,0-.29.54,1.22,1.22,0,0,1-.16.37A5.12,5.12,0,0,1,4.31,6a4.47,4.47,0,0,0-.41.32,2.26,2.26,0,0,0-.35.34c-.14.2-.24.41-.37.61s-.27.5-.57.59l-.5.16a1.44,1.44,0,0,0-.31,0A1.93,1.93,0,0,0,1,8.68c-.16.22-.37.41-.54.62a1,1,0,0,0-.18.32c0,.17,0,.34,0,.51h0s0,.15,0,.24,0,.12,0,.17c0,.27.06.53.11.8a5.84,5.84,0,0,0,.2.88,1.43,1.43,0,0,0,.2.36,5.8,5.8,0,0,1,.34.52s-.05.13-.07.19l.17.39.55,0a.57.57,0,0,0,.28-.08l.66-.45A1.22,1.22,0,0,1,3.63,13a6,6,0,0,0,.74,0h0c.08,0,.2.07.23,0a1.21,1.21,0,0,0,.26-.39c.14-.43.22-.87.35-1.3,0-.07.19-.13.29-.15.31-.06.51.07.71.39a5.32,5.32,0,0,0,1,1.12,3.18,3.18,0,0,1,.6.92,6.38,6.38,0,0,1,.3.87,2.91,2.91,0,0,1,.06,1.82,2.2,2.2,0,0,0,0,.63c0,.14,0,.26-.16.34s-.09.13-.15.18c-.23.22-.31.22-.61.11a2.44,2.44,0,0,0-.46-.07.58.58,0,0,1-.22-.08,1.61,1.61,0,0,0-1,0,.28.28,0,0,1-.13,0,.68.68,0,0,0-.65,0c-.08,0-.17,0-.26.05a3.65,3.65,0,0,0-.34.18,0,0,0,0,0,0,0c.27.14.54.3.8.47a.74.74,0,0,1,.26,0h0c0,.13.06.15.14.17l.37.13h0l0,0,.28.06.88.25a.1.1,0,0,1,.06,0l.36.06s0,0,0-.06h.1a4.57,4.57,0,0,1,0-.52.38.38,0,0,1,.21-.2,1.78,1.78,0,0,1,.5-.14.24.24,0,0,1,.2.13,6.75,6.75,0,0,1,.14.76s-.08.06-.12.09l-.2.13.1,0,1,.11s.06,0,.08.05h.53a.09.09,0,0,1,.07,0l.19,0s0,0,.06,0,.22.1.26.08.28.07.38-.06.17-.09.25,0l.28-.08-.34-.22s0,0,0,0c-.26-.1-.19-.38-.3-.56l-.46-.38a1.92,1.92,0,0,0-.31-.18c-.05,0-.12-.11-.11-.14s-.16-.16-.2-.25a.4.4,0,0,1-.07-.15c0-.47,0-.93.09-1.38A3.53,3.53,0,0,0,10,15c0-.69-.06-1.4-.09-2.1a1.51,1.51,0,0,1,0-.37.29.29,0,0,1,.15-.16,2.81,2.81,0,0,1,.49-.16c.19,0,.39,0,.59-.08.4,0,.79-.12,1.19-.18l-.1-.11c.07,0,.15,0,.18,0a.36.36,0,0,0,.46-.06h0a.52.52,0,0,1-.14-.19.08.08,0,0,1,0,0,1.33,1.33,0,0,1-.25-.3,2.06,2.06,0,0,1-.25-.59,2.65,2.65,0,0,1-.11-.79,1.75,1.75,0,0,1,.12-.55.91.91,0,0,1,1-.44,1.21,1.21,0,0,1,.87,1c.06.21,0,.44.09.65a4.19,4.19,0,0,0,.14.49,6.91,6.91,0,0,1,.21-.77,2.18,2.18,0,0,1,.65-1.05.7.7,0,0,1,.6-.1.85.85,0,0,1,.64.43,1.15,1.15,0,0,1,.06.85,4.52,4.52,0,0,1-.7,1.47s0,0,0,0l.5.21c.28-.06.48.11.7.21s.1.13.14.21l.59.32c.07,0,.09.14.15.21s.1.06.13.11a1,1,0,0,1,.22.78s0,0,0,.06c-.23.24-.16.54-.2.82a.41.41,0,0,0,.15-.35.65.65,0,0,1,.14-.29c.12-.19.24-.38.34-.57s.1-.22.15-.33C18.51,13.15,18.63,13.43,18.63,13.49ZM5.07,8a2.12,2.12,0,0,1-.42.8,2.74,2.74,0,0,1-.32.36c-.18.15-.37.29-.54.44s-.28.29-.44.41a1.49,1.49,0,0,1-.45.19c-.14.06-.29.11-.42.18s-.58.1-.65,0a.37.37,0,0,1,0-.37,9.83,9.83,0,0,1,1-.73,2.23,2.23,0,0,1,.51-.19A.48.48,0,0,0,3.52,9,4.78,4.78,0,0,0,4,8.32c.23-.39.43-.81.66-1.2a.86.86,0,0,1,.29-.28s.19.07.24.13a1.85,1.85,0,0,1,.1.42C5.22,7.57,5.13,7.79,5.07,8Z"/><path class="cls-1" d="M10.68,19.17s0,0,0,0a0,0,0,0,1,0,0h0S10.68,19.18,10.68,19.17Z"/><path class="cls-2" d="M8.14,14.4a6.38,6.38,0,0,0-.3-.87,3.12,3.12,0,0,0-.6-.92,5.06,5.06,0,0,1-1-1.12c-.2-.32-.39-.45-.71-.39-.1,0-.27.08-.29.15-.13.43-.22.87-.35,1.3a.93.93,0,0,1-.26.39s-.15,0-.23,0h0a6,6,0,0,1-.74,0,1.27,1.27,0,0,0-.84.24l-.66.45a.57.57,0,0,1-.28.08,5.07,5.07,0,0,1-.55,0c.08.17.15.33.22.5l0,.05,0,.06c.28.42.54.84.8,1.27l.05,0a1.9,1.9,0,0,1,.39.36c.3.38.57.77.88,1.14a4,4,0,0,0,.54.46l.34-.18a1.32,1.32,0,0,0,.26-.05.71.71,0,0,1,.65,0s.08,0,.12,0a1.56,1.56,0,0,1,1,0,.83.83,0,0,0,.22.08,2.12,2.12,0,0,1,.45.07c.31.12.39.12.62-.11.06-.06.09-.14.15-.17s.15-.2.15-.35a2.64,2.64,0,0,1,0-.63,3,3,0,0,0-.07-1.8ZM14.93,1.73H15c.27,0,.34,0,.36.31,0,.07,0,.22.14.09,0,0,.06,0,.1,0l.29.21a3.57,3.57,0,0,1,.4.37c.26.27.53.55.76.84a7.94,7.94,0,0,1,.4.7,1.81,1.81,0,0,0,.25.3,3,3,0,0,1,.74,1,5.49,5.49,0,0,1,.18.78,1,1,0,0,1,0,.42.35.35,0,0,1,0,.06c.17.08.18.23.19.4a2.56,2.56,0,0,0,.15.59,6.94,6.94,0,0,1,.32,1.9c0,.3-.08.62-.06.92s.17.64.23,1c0,.15.08.38,0,.46-.27.31-.08.6-.05.89s-.17.46-.39.39l-.08-.08H18.8c-.29-.12-.17.15-.17.22s-.08.23-.21.18-.11-.13-.13-.22,0-.41-.3-.54c-.09,0-.15-.25-.16-.39,0-.39,0-.79,0-1.18a.88.88,0,0,0-.12-.32,2.07,2.07,0,0,1-.18-.88,1.47,1.47,0,0,0-.32-.82A1.22,1.22,0,0,1,17,8.15a5.82,5.82,0,0,1,.34-.58c0-.09.06-.19.1-.29s.07,0,.09-.06a2.65,2.65,0,0,1,.37-.38,4.79,4.79,0,0,1,.53-.34.21.21,0,0,0,.08-.3.82.82,0,0,0-.73-.54,3,3,0,0,0-1.16.24,1.14,1.14,0,0,1-.94-.05,1.76,1.76,0,0,1-.46-.48,4.94,4.94,0,0,1-.35-.64c-.17-.32-.32-.66-.52-1-.06-.08-.22-.1-.32-.17a2.8,2.8,0,0,1-.65-.39,3.67,3.67,0,0,1-.54-.75c-.11-.19-.16-.43-.26-.62s-.35-.53-.51-.8,0-.26.17-.29l.09,0L13,.89c.11,0,.23,0,.34,0a3.66,3.66,0,0,1,.43.15c.18.06.35.12.53.2s.1.1.15.15a1.49,1.49,0,0,0,.28.23s.05.16.16.07Zm-1.31-.56-.06,0c-.09,0-.19-.09-.29-.12a.55.55,0,0,0-.22,0,1.28,1.28,0,0,0,.22.17,1,1,0,0,0,.18.06l.08,0A.48.48,0,0,0,13.62,1.17ZM5.73,2.9a2.14,2.14,0,0,0-.17-.46,4.43,4.43,0,0,1-.19-.69,1.93,1.93,0,0,1,.06-.41c0-.1,0-.21.05-.31L5.35.9h0l-.48.26a4.76,4.76,0,0,1-.49.28.09.09,0,0,1-.12,0l-.12.1s-.06,0-.09,0-.09,0-.12,0a5.34,5.34,0,0,1-.48.35c-.22.12-.44.2-.55.49a6.93,6.93,0,0,1-.48.94c-.09.16-.19.31-.41.32a.28.28,0,0,0-.3.24,2.18,2.18,0,0,1-.16.45c-.15.34-.32.67-.48,1s-.26.69-.42,1a3.21,3.21,0,0,0-.36,1.7,2.8,2.8,0,0,1,0,.5c0,.25-.07.5-.11.75,0,0,0,.08,0,.12a.07.07,0,0,1,0,0,.31.31,0,0,1,0,.1,1.4,1.4,0,0,1,.18-.32c.17-.22.38-.4.54-.62a1.93,1.93,0,0,1,.81-.58,1.06,1.06,0,0,1,.31,0l.5-.16c.3-.09.42-.36.57-.59s.24-.42.37-.61a1.88,1.88,0,0,1,.35-.34A4.12,4.12,0,0,1,4.27,6a3.93,3.93,0,0,0,.44-.34,1.56,1.56,0,0,0,.17-.37,5.52,5.52,0,0,1,.28-.54c.1-.18.24-.34.33-.52a1.4,1.4,0,0,0,.17-.51,2.81,2.81,0,0,0,.07-.86Z"/><path class="cls-3" d="M18,14.81c-.07.49-.13,1-.22,1.45-.06.32-.14.64-.22,1a9.9,9.9,0,0,1-.28,1.07.76.76,0,0,0-.05.57.17.17,0,0,1-.09.14l-1.06.29s-.07,0-.07-.05c.08-.63.19-1.26.26-1.88s.11-1.07.15-1.61c0-.38.06-.75.1-1.12,0-.19.07-.38.1-.57s0-.17,0-.26,0-.07,0-.12,0-.07,0-.08L16,13.14c-.14-.08-.29-.17-.4-.22.5-.14,1-.27,1.56-.4l.59.32c.07,0,.09.14.15.21s.1.06.13.11a1,1,0,0,1,.22.78s0,0,0,.06c-.21.23-.14.53-.19.81ZM12.31,12l.81.58s0,.05,0,.06,0,0-.06,0c-.49.1-1,.16-1.46.3-.13,0-.25.26-.27.42-.11.71-.21,1.43-.28,2.15C11,16,11,16.58,11,17.13l-.06,1.13-.46-.38a1.92,1.92,0,0,0-.31-.18c-.05,0-.12-.11-.11-.14s-.16-.16-.2-.25a.4.4,0,0,1-.07-.15c0-.47,0-.93.09-1.38A3.53,3.53,0,0,0,10,15c0-.69-.06-1.4-.09-2.1a1.51,1.51,0,0,1,0-.37.29.29,0,0,1,.15-.16,2.66,2.66,0,0,1,.5-.16c.18,0,.38,0,.58-.08C11.52,12.08,11.92,12,12.31,12Z"/><path class="cls-2" d="M5.28,7.37,5.07,8a2.12,2.12,0,0,1-.42.8,2.74,2.74,0,0,1-.32.36c-.18.15-.37.29-.54.44s-.28.29-.44.41a1.49,1.49,0,0,1-.45.19c-.14.06-.29.11-.42.18s-.58.1-.65,0a.37.37,0,0,1,0-.37,9.83,9.83,0,0,1,1-.73,2.23,2.23,0,0,1,.51-.19A.48.48,0,0,0,3.52,9,4.78,4.78,0,0,0,4,8.32c.23-.39.43-.81.66-1.2a.86.86,0,0,1,.29-.28s.19.07.24.13a1.54,1.54,0,0,1,.1.4ZM8.36,19l.19-.13s.13-.07.12-.09A6.35,6.35,0,0,0,8.54,18a.28.28,0,0,0-.21-.14,1.52,1.52,0,0,0-.5.15.36.36,0,0,0-.2.2,3.07,3.07,0,0,0-.06.52l0,.08C7.85,18.89,8.11,18.94,8.36,19Z"/><path class="cls-3" d="M16.31,12.1l-.83.19.33-.4ZM11.79,19c0-.26,0-.53,0-.8,0-.45,0-.89.05-1.34.06-.86.14-1.71.21-2.57,0-.18,0-.37,0-.55s.09-.12.12-.18c.09-.26.33-.14.5-.18s.41,0,.61-.08.67-.16,1-.22a.58.58,0,0,1,.35.11,8.22,8.22,0,0,1,.82.6.56.56,0,0,1,.13.49c0,.52-.07,1-.1,1.56s-.14,1.29-.2,1.94-.11,1.07-.16,1.6c0,.08,0,.11-.16.11-.31,0-.61.07-.93.1s-.64.2-.91.19-.32-.11-.54-.12-.39-.4-.6-.51Z"/><path class="cls-4" d="M13.53,11.59a5.11,5.11,0,0,1-.45-.48,1.54,1.54,0,0,1-.24-.5,3.26,3.26,0,0,1-.12-.75A.4.4,0,0,1,13,9.59c.21-.07.35.08.41.26a4.74,4.74,0,0,1,.16.65,9,9,0,0,1,.27,1.05Zm2.29-1.82c-.1,0-.28,0-.31.07a7.66,7.66,0,0,0-.4.93,4.09,4.09,0,0,0-.17.69h0l.07.06a.09.09,0,0,1,.11,0l.06,0c.08-.13.14-.25.23-.38A3,3,0,0,0,15.94,10C15.94,9.92,15.87,9.78,15.82,9.77Z"/><path class="cls-3" d="M13.53,11.59l.28,0,.11.39-.06,0-.33-.37Z"/><path class="cls-5" d="M14.93,1.73c-.12.1-.14-.05-.18-.08a1.23,1.23,0,0,1-.28-.23C14.81,1.37,14.88,1.42,14.93,1.73Z"/><path class="cls-3" d="M14.94,11.4c.09,0,.15.23.24.24l-.25.35s0,0,0,0,0,0,0,0a5.41,5.41,0,0,1,.07-.58Z"/><path class="cls-6" d="M11.79,19a1.92,1.92,0,0,0,.21.16s-.08,0-.12,0-.1,0-.11-.06S11.78,19.06,11.79,19Z"/><path class="cls-2" d="M15.61,2.14h0A0,0,0,0,0,15.61,2.14Z"/><path class="cls-1" d="M5.65.81h0s0,0,0,0Z"/><path class="cls-7" d="M13.62,1.17s0,.09-.09.11,0,0-.08,0a.63.63,0,0,1-.18-.06c-.08-.05-.14-.11-.22-.17a.83.83,0,0,1,.22,0,2.52,2.52,0,0,1,.29.12A.09.09,0,0,1,13.62,1.17Zm-.18,0h0a0,0,0,0,0,0,0h0v0Z"/><path class="cls-1" d="M2.09,8.06Z"/><path class="cls-2" d="M13.44,1.14v0h0a.08.08,0,0,1,0,0Z"/><path class="cls-8" d="M10.51,19.3l-.35,0c-.28,0-.54,0-.82-.06H9L8,19.1A5.25,5.25,0,0,1,7.44,19c-.18,0-.35-.1-.52-.13s-.81-.19-1-.25a3.53,3.53,0,0,1-.46-.15,7,7,0,0,1-.69-.31,6.33,6.33,0,0,1-.7-.44,2.17,2.17,0,0,1-.36-.32c-.22-.2-.45-.38-.65-.59a7.36,7.36,0,0,1-.55-.7c-.23-.33-.46-.67-.67-1A8.31,8.31,0,0,1,1,13.35c-.19-.58-.4-1.15-.57-1.73a13.11,13.11,0,0,1-.32-1.41A4.87,4.87,0,0,1,0,9.45,5.27,5.27,0,0,1,.08,8.13c.05-.28.06-.57.12-.85A10.16,10.16,0,0,1,.45,6.22c.13-.45.28-.88.45-1.31A6.69,6.69,0,0,1,1.37,4a6.45,6.45,0,0,1,.47-.69c.13-.17.29-.33.44-.49l.3-.33c.16-.16.33-.31.5-.46a6.12,6.12,0,0,1,.5-.39c.21-.14.43-.27.66-.4s.41-.21.62-.31L5.25.83c.23-.07.45-.17.68-.24L6.61.43c.11,0,.22-.08.33-.11s.53-.1.79-.14A5.58,5.58,0,0,1,8.32.09L9,0,9,0h.59s.07,0,.1,0c.2,0,.41,0,.61,0s.5.06.76.07A5.08,5.08,0,0,1,12,.3a6.36,6.36,0,0,0,.71.21c.21,0,.4.15.62.19A2.22,2.22,0,0,1,14,.92c.37.17.74.33,1.09.53s.69.46,1.05.68a4.73,4.73,0,0,1,.87.74,6.2,6.2,0,0,1,.62.81,12.81,12.81,0,0,1,.72,1.18,8.47,8.47,0,0,1,.51,1,13.3,13.3,0,0,1,.46,1.48c.09.4.14.8.21,1.21a2.44,2.44,0,0,0,.05.39c0,.13-.05.24,0,.36a.72.72,0,0,1,0,.26c0,.24,0,.5,0,.75s0,.51,0,.77a.83.83,0,0,0,0,.22c0,.13.1.25.14.38s.13.43.17.65.07.66.11,1c0,0,0,.07,0,.11v.1c0,.09,0,.19-.05.28s0,.36-.08.53a2.77,2.77,0,0,1-.29.77c-.16.29-.3.57-.47.84a3.57,3.57,0,0,1-.45.51c-.13.13-.27.25-.4.36s-.13.08-.18.12a.93.93,0,0,0-.31.55c-.12.41-.22.84-.32,1.25l-.09.3c0,.17-.22.17-.35.21a3.89,3.89,0,0,1-.49.12c-.28,0-.54.12-.82.18l-.53.1-.93.13c-.35.05-.69.09-1,.12L13,20a.25.25,0,0,1-.27-.05,1.93,1.93,0,0,0-.38-.19c-.15-.09-.29-.19-.44-.3l-.33-.22a.07.07,0,0,0-.09,0,1.36,1.36,0,0,1-.29,0l-.34,0-.3,0s0,0,0,0,0,0,0,0Zm6.82-2.45h-.09a.21.21,0,0,1-.21-.07.11.11,0,0,1,0-.18,3.45,3.45,0,0,0,.41-.25l0,0-.1,0c-.07,0-.15,0-.19-.07s0-.25.09-.31.19-.07.28-.13.21-.11.23-.19a4,4,0,0,0,.18-.76c0-.18.06-.36.09-.54s.06-.47.1-.69l-.4.1h-.09a1.13,1.13,0,0,0-.26,0l-.3.09-.71.15c-.08,0-.16.05-.23,0s-.28,0-.42.06l-.19.05-.43.1-.53.1h-.15l-.49.14c-.29.05-.3.06-.32.28s-.08.62-.12.94a1.16,1.16,0,0,1,.32,0,.14.14,0,0,1,.07.12.61.61,0,0,1-.37.27c-.09,0-.1,0-.08.12h.19c.22,0,.42,0,.64,0a.22.22,0,0,1,.15.13.26.26,0,0,1-.09.18.88.88,0,0,1-.51.15s-.07,0-.11.05.09.05.12,0a1.82,1.82,0,0,1,.77,0c.1,0,.12.12.07.21s-.2.13-.31.15-.34,0-.51,0-.2,0-.18.12c.18,0,.36,0,.54.05a.33.33,0,0,1,.19.11s0,.13-.1.17a.91.91,0,0,1-.33.1,1.9,1.9,0,0,1-.63-.05.11.11,0,0,0-.1.05.71.71,0,0,0,0,.21c0,.15,0,.3,0,.44s0,.36-.06.54,0,.51-.05.78l.24,0,1-.17c.09,0,.18,0,.28,0,.37,0,.74-.1,1.12-.16l.34-.06.79-.25c.13,0,.24-.09.27-.23s.05-.25.07-.37.08-.46.13-.69l.09-.42-.28,0s-.08,0-.07,0a.6.6,0,0,1,.14-.2s.11,0,.18,0,0-.09,0-.07,0,0,0,0Zm-5.1-16h-.05L11.29.59a5,5,0,0,0-.67-.13,4.07,4.07,0,0,0-.5,0l-1,0a1.69,1.69,0,0,0-.24,0l-.29,0-.08,0s0,0,0,0h0s0,0,0,0,0,0-.06,0A2.7,2.7,0,0,0,8,.59l-.5.09L6.94.82a4.37,4.37,0,0,1-.52.12L6.18,1,6,1.06l-.28.08-.61.24a4,4,0,0,0-.47.21c-.13.06-.24.16-.37.23a4.33,4.33,0,0,0-.91.66c-.19.19-.39.38-.58.58s-.44.47-.64.73a7.48,7.48,0,0,0-.54.84c-.13.24-.24.48-.35.73s-.13.37-.19.57S1,6.38.92,6.6s-.12.53-.18.8-.08.43-.11.65S.55,8.64.52,9a5.46,5.46,0,0,0,0,.58c0,.14,0,.29,0,.43a6,6,0,0,0,.07.72c.1.45.23.89.37,1.33s.35.94.54,1.42A8.16,8.16,0,0,0,2.4,15c.2.29.41.55.63.82a5.85,5.85,0,0,0,.45.54c.21.22.44.42.66.62s.28.24.43.35l.69.46c.15.09.3.19.45.26a2.86,2.86,0,0,0,.48.2l.47.17a4.07,4.07,0,0,0,.5.13l.85.2.43.07c.21,0,.43.06.64.07l.53,0h1.55c-.23-.23-.47-.44-.72-.65l-.57-.47a.37.37,0,0,1-.16-.36.43.43,0,0,1,0-.05l-.52-.07a2.47,2.47,0,0,1-.38-.05c-.17,0-.33-.1-.5-.15a7.46,7.46,0,0,1-.71-.27c-.32-.15-.63-.31-.94-.48a4.74,4.74,0,0,1-1.14-.81,6.89,6.89,0,0,1-.63-.82c-.06-.08,0-.1,0-.17l0,0A1,1,0,0,1,5.34,14c.07-.06.13,0,.18.05a1.66,1.66,0,0,0,.16.21c.15.14.31.26.46.39a6.37,6.37,0,0,0,.67.6A8.39,8.39,0,0,0,8.13,16c.14.06.28.13.43.18s.45.13.68.17.26,0,.4.05V16c0-.32,0-.64,0-1s.05-.52.07-.77,0-.49,0-.75,0-.58,0-.88,0-.4,0-.59l2.75-.52.52.45-2.64.4a.82.82,0,0,0,.19.09l.08,0a.77.77,0,0,0,.19.17c.27.16.55.3.82.47a5.45,5.45,0,0,1,.53.29,6.15,6.15,0,0,1,.56.38l.2.13.09,0c.11.05.22.17.37.15s.4-.11.6-.15a1.14,1.14,0,0,1,.25-.06,4.09,4.09,0,0,0,.85-.15,5.58,5.58,0,0,1,.69-.13c.24,0,.5,0,.74-.11s.72-.14,1.08-.18l.2,0A13.65,13.65,0,0,0,15.71,12l.23-.3.42.22c.13.08.27.14.41.22l1,.62a1.4,1.4,0,0,1,.56.49,1.37,1.37,0,0,0,.16.18h0a1.3,1.3,0,0,1,0-.22c.08-.36.2-.72.27-1.08a8.27,8.27,0,0,0,.12-.85l0-.35c0-.12,0-.24,0-.37s0-.4,0-.61,0-.45,0-.67-.05-.44-.08-.65,0-.37-.06-.55a7.18,7.18,0,0,0-.19-.83c-.15-.44-.3-.88-.47-1.31a5,5,0,0,0-.31-.66c-.19-.35-.4-.69-.61-1s-.28-.41-.44-.61A4.73,4.73,0,0,0,16.22,3a8.18,8.18,0,0,0-.76-.59,8.92,8.92,0,0,0-.82-.54,8.34,8.34,0,0,0-1-.51c-.46-.18-.92-.32-1.38-.47v0s0,0,0,0ZM10.12,16.44c.09,0,.2.06.29.07l1,0a3.25,3.25,0,0,0,1-.24c.16-.15.35-.28.51-.42s.15-.06.16-.16c0-.38.09-.75.13-1.13a.13.13,0,0,0,0-.09l-.21-.2c-.08-.07-.19-.12-.28-.19a1.14,1.14,0,0,0-.17-.15c-.18-.13-.38-.24-.57-.35s-.44-.28-.67-.41l-.9-.5-.27-.15C10.05,13.85,10.18,15.15,10.12,16.44Zm2.57,3.13c0-.1,0-.19,0-.28,0-.38.07-.76.11-1.15a3.89,3.89,0,0,0,0-.47s0-.1-.08-.1a1.58,1.58,0,0,0-.38,0l-1.25,0-1,0v.15c.06,0,.12,0,.1.05l.13.05a4.59,4.59,0,0,1,.44.33c.21.17.4.36.6.55a3.08,3.08,0,0,0,.26.24c.07.07.16.12.24.19s.23.19.35.27a3.45,3.45,0,0,0,.32.2S12.64,19.55,12.69,19.57Zm5.67-4.43h0c.05-.09.11-.18.16-.28s.11-.21.16-.31a1.61,1.61,0,0,0,.09-.29h0l-.05.08c-.12.21-.23.42-.33.64A.69.69,0,0,0,18.36,15.14ZM10.55,19.3h0Z"/><path class="cls-8" d="M9.05,7.8c0-.13.11-.24.15-.36s.08-.08.16,0,.27.14.41.19a3,3,0,0,0,.49.13,3,3,0,0,0,.52,0h.08a1.59,1.59,0,0,0,1.07-.46,3.69,3.69,0,0,0,.25-.34.33.33,0,0,1,.12-.16.18.18,0,0,1,.16,0,.6.6,0,0,1,.21.14.1.1,0,0,1,0,.09,1.81,1.81,0,0,1-.29.47,4.52,4.52,0,0,1-.56.51,2,2,0,0,1-.9.27c-.16,0-.32,0-.48,0a1.53,1.53,0,0,1-.41-.07Q9.78,8.11,9.51,8c-.15,0-.3-.13-.46-.2Zm-1.4-.73a.68.68,0,0,1-.59-.3.34.34,0,0,1,0-.24c0-.2,0-.41.23-.54a.74.74,0,0,1,.24-.11A.69.69,0,0,1,8.12,6a.59.59,0,0,1,.19.41.74.74,0,0,1-.05.38A.58.58,0,0,1,7.9,7Zm4.84-1.55A.52.52,0,0,1,13,5a.64.64,0,0,1,.61.58.54.54,0,0,1-.55.55A.6.6,0,0,1,12.49,5.52Zm1.24,5.77c0,.15.1.29.14.43l-.06,0c-.07.07-.13,0-.17,0l-.34-.38Zm1.41.41c-.07-.06-.18-.11-.22-.18s0-.16,0-.24.12-.07.17-.12l.22.2a2.27,2.27,0,0,1-.19.34Zm2.2,5.14,0,0,0,0Z"/></svg>