<svg id="Layer_1" data-name="Layer 1" xmlns="http://www.w3.org/2000/svg" viewBox="0 0 20 18"><defs><style>.cls-1{fill:#c5bccf;}.cls-2{fill:none;}.cls-3{fill:#f60;}.cls-4{fill:#fff;}.cls-5{fill:#40354e;}</style></defs><title>subscribe-image</title><path class="cls-1" d="M2.74,7.07l.06,0L3,6.9l.26-.16.4-.24,0,0,.59-.34c.17-.1.35-.18.53-.28h0L5,5.78l.14-.06.43-.23L6,5.27l.15-.09a1.71,1.71,0,0,1,.23-.13,2.06,2.06,0,0,1,.26-.12l.23-.11L7,4.72l.13-.08.22-.11.28-.16.27-.16.11-.06,0,0,0,0,.1-.05.1,0,.21-.11.31-.16.31-.15.47-.23L10.27,3l.2-.12.22-.13L11,2.55l.32-.17.12,0,.11-.05.11-.06.11-.05.1-.06L12.12,2a1,1,0,0,1,.21-.08h0l.07,0a.14.14,0,0,1,.09-.05h.08l.06,0,.1,0,.15-.07.17-.08.09,0,.08,0,.15-.07.14,0,.05,0a.09.09,0,0,1,0,0l.08,0,.12,0A1.4,1.4,0,0,0,14,1.16l.07,0,0,0,.07,0L14.3,1l.07,0,.05,0-.05,0L14.3.84a.75.75,0,0,0-.18-.13L14,.63a1.17,1.17,0,0,0-.32-.15.94.94,0,0,1-.24-.06l-.18,0c-.18,0-.36-.09-.56-.12L11.88.14l-.6-.07-.34,0-.1,0H9.62L9,.06a1.23,1.23,0,0,0-.39.08l-.15,0L8.37.2,8.11.27,8,.29l-.11,0L7.51.45a.48.48,0,0,1-.17,0l-.13,0A.72.72,0,0,0,7,.63L7,.65l-.1,0c-.13.06-.26.12-.38.19L6.33,1,6.23,1l-.15.09-.26.16a2.86,2.86,0,0,0-.3.22l-.09.07L5,1.92,5,2l-.17.14-.39.36c-.06.07-.13.14-.18.21l-.06.06L4,2.85c-.09.1-.19.21-.28.33s-.39.55-.57.83-.23.35-.33.52-.27.48-.4.73a1.14,1.14,0,0,0-.09.26v0c-.06.22-.12.44-.17.66s0,.21-.05.31a2,2,0,0,0,0,.26C2.05,6.9,2,7,2,7.11s-.05.22-.07.33A5,5,0,0,0,1.84,8a.33.33,0,0,0,0,.14v.06h0l0,0v.05h0c0,.15,0,.3,0,.48h0v0h0V9c0,.11,0,.24,0,.36s0,.23,0,.34l0,.15,0,.07.05,0a1.4,1.4,0,0,0,.1-.16l.08-.13.16-.29,0-.08a.67.67,0,0,0,.06-.12A1.4,1.4,0,0,0,2.52,9l.12-.18.06-.13.06-.1c0-.08.09-.15.14-.24h0L3,8.1a.37.37,0,0,0,0-.27A2.12,2.12,0,0,0,3,7.62l0,0a1.46,1.46,0,0,0-.22-.35.11.11,0,0,1,0-.14s0,0,0,0ZM19.68,9.91l-.1,0-.12.06-.14.07-.29.14a4.74,4.74,0,0,0-.51.24,2.34,2.34,0,0,0-.27.15l-.16.1-.13.07-.7.38-.35.17-.21.1-.43.21-.31.19-.22.15-.21.14-.28.17-.22.14s-.07.05-.06.09,0,.22,0,.31L15,13a1.25,1.25,0,0,1,0,.19c0,.17,0,.33,0,.49v.15a.25.25,0,0,1,0,.08v.22s0,.05,0,.07l0,0-.22.05-.18,0-.21.05a.12.12,0,0,0-.09,0l-.08,0-.15,0H14l-.13,0-.19,0a.91.91,0,0,1-.23,0l-.14,0h0a.28.28,0,0,0-.15,0H13a1.35,1.35,0,0,1-.36.08h-.13l-.06,0-.28.05h0l-.1,0a.78.78,0,0,1-.22,0h-.11l-.08,0-.14,0h-.13l-.09,0h0a.69.69,0,0,1-.2,0l-.05,0h-.16l-.19.06-.06,0-.17.05h-.19l-.24,0-.56.07a1.9,1.9,0,0,1-.25,0l-.16,0-.32,0-.36.06-.23,0-.76.11-.09,0-.19,0-.25,0H6.54l-.15,0-.11,0H6.16l-.37.05h0l-.18,0-.07,0a.37.37,0,0,1-.14-.07.15.15,0,0,0-.09,0,.11.11,0,0,1-.08,0,.25.25,0,0,0-.13-.05s-.05,0-.07,0l-.14-.07-.12-.07-.15-.06-.13-.06,0,0,0,0-.08,0-.08,0L4,14.88,4,14.82l-.17-.11-.17-.09-.11-.06,0,0-.06,0H3.26v0h0a.06.06,0,0,0,0,0l.1.13.35.46.36.44.1.09.08.08,0,0,.08.09s0,0,.06.07l.07.09.26.18.08.05,0,0,0,0,.16.13c.09.07.19.15.3.22.27.18.54.34.78.48a2.31,2.31,0,0,0,.35.18l.16.05.1,0h0l.14.06H7a1,1,0,0,0,.24.1l.25.05.2,0a.86.86,0,0,0,.17,0l.14,0,.27.05.12,0,.14,0a3,3,0,0,0,.32.06l.51,0,.26,0,.09,0h.92A3.8,3.8,0,0,0,11,18l.44-.08.1,0,.45-.09.19,0,.18,0,.41-.08.63-.17.27-.08.12-.05.17,0,.37-.13.7-.34.24-.13a3.87,3.87,0,0,0,.41-.21h0a1.71,1.71,0,0,0,.23-.13l.17-.14.16-.12.15-.1.13-.09,0,0,.42-.32c.12-.1.24-.23.35-.33l.43-.47a3.79,3.79,0,0,0,.56-.75l.32-.58c.07-.13.13-.26.2-.41L19,12.8s0-.07,0-.11l0-.06.05-.11a.66.66,0,0,0,.06-.2l.14-.44a.38.38,0,0,1,0-.1c0-.06,0-.13.05-.19s.05-.21.07-.3,0-.06,0-.1l0-.09,0-.14c0-.06,0-.12,0-.18s0-.19.05-.27a1.42,1.42,0,0,0,0-.2c0-.09,0-.17.05-.26l0-.19-.06,0c.05,0,0,0,0,0ZM20,8.61V8.49c0-.15,0-.3,0-.46a2.3,2.3,0,0,0,0-.26s0-.08,0-.12l0-.15c0-.09,0-.2,0-.3s-.05-.27-.07-.39v0c0-.13-.05-.26-.08-.39s-.08-.32-.11-.45l0-.06a3.31,3.31,0,0,0-.12-.42,3.45,3.45,0,0,0-.14-.34l0-.13,0-.09a2.56,2.56,0,0,0-.11-.24c-.06-.13-.13-.24-.2-.36A3,3,0,0,0,18.71,4l-.09-.1-.07-.08c-.05-.06-.1-.11-.15-.18a4.19,4.19,0,0,0-.28-.34c-.12-.13-.26-.25-.39-.37l-.12-.11-.17-.14-.1-.08-.09-.08a.79.79,0,0,0-.17-.14.61.61,0,0,0-.16-.12l-.15-.11c-.13-.1-.26-.2-.38-.31l-.24-.18s0,0,0,0h0l0-.05,0,0h0l0,0,.05,0a.06.06,0,0,0,0,.05.83.83,0,0,0,.12.16c.06.1.14.21.21.31l.45.73c.15.24.28.46.4.68l.22.41.12.24c.07.13.14.25.2.38L18,5c.09.17.18.34.28.51s.19.37.27.52.29.58.43.88a2,2,0,0,0,.1.21l.06.16.15.33.12.25a1.42,1.42,0,0,1,.08.18l.15.33c.06.13.14.26.21.38l.09.17.06,0V8.79a1,1,0,0,0,0-.18ZM4.64,12.11c0-.13,0-.24,0-.33a1,1,0,0,0-.24-.6.22.22,0,0,0-.16-.09H3.92a3.09,3.09,0,0,0-.33.39.18.18,0,0,1-.19,0,1.28,1.28,0,0,0,.2.57.32.32,0,0,0,.28.17h.58c.1,0,.16,0,.18-.15Z"/><path class="cls-2" d="M4.65,10.69l0,0a.31.31,0,0,0-.23-.1l-.1,0h0a1.2,1.2,0,0,1,.37.1Zm-.24,1.75c.3-.27.64-.74.39-1.15A.65.65,0,0,0,4.06,11a1.38,1.38,0,0,0-.46.47c-.15.19-.42-.07-.27-.26a2.52,2.52,0,0,1,.45-.47h0a.38.38,0,0,0-.26.14l0,0S3.4,11,3.41,11s0,0,0,0l0,.06a.24.24,0,0,0-.06.08.64.64,0,0,1-.1.18.43.43,0,0,0,0,.07l0,0a.54.54,0,0,0-.07.13.33.33,0,0,0,0,.16,2,2,0,0,0,.07.26,1.64,1.64,0,0,0,.34.53.32.32,0,0,0,.23.14h.16a1.65,1.65,0,0,1,.5.1l0,0h.07a.11.11,0,0,1,.08-.08c-.1-.09-.15-.22,0-.32Zm.46.06a1.74,1.74,0,0,1,.22-.18.05.05,0,0,0,0-.05.57.57,0,0,0,0-.13A3.75,3.75,0,0,1,4.87,12.5Z"/><path class="cls-3" d="M14.33,13.63s0,0,0,0a.39.39,0,0,0,0-.18v0a.21.21,0,0,1,0-.17.32.32,0,0,0,0-.14.15.15,0,0,0,0-.07v-.08c0-.11,0-.22,0-.34v-.13c0-.06,0-.12,0-.18a2,2,0,0,0,0-.24.88.88,0,0,0,0-.16.61.61,0,0,1,0-.14l0-.19,0-.2,0-.19,0-.23a1,1,0,0,0,0-.18s0,0,0-.05v0s0-.08,0-.11,0-.1,0-.15l0-.16,0-.12a.17.17,0,0,1,0-.07V10a.76.76,0,0,1,0-.16l0-.17a.28.28,0,0,1,0-.09s0-.1,0-.15a.17.17,0,0,1,0-.07.3.3,0,0,0,0-.13s0,0,0-.07v0h0s0-.05,0-.06h0l0,0a.11.11,0,0,0,0-.08.29.29,0,0,1,0-.16.66.66,0,0,0,0-.14.3.3,0,0,1,0-.1.38.38,0,0,0,0-.18h0v0h0V8.21a.14.14,0,0,0,0-.06s0,0,0-.06,0-.1,0-.16a.41.41,0,0,0,0-.11s0-.09,0-.14a.43.43,0,0,1,0,0v0s0,0,0-.06v0a.2.2,0,0,0,0-.11.06.06,0,0,1,0,0,1,1,0,0,0,0-.29.37.37,0,0,0,0-.09.83.83,0,0,0,0-.15l-.07-.08a.1.1,0,0,1,0,0,.56.56,0,0,1-.05-.08c0-.06-.08-.16-.2-.17s0,0,0,0a.09.09,0,0,0-.07,0h-.42l-.13,0-.08,0h-.07l-.07,0-.22.08h0a1,1,0,0,1-.34.11h-.15l-.35,0-.15,0h-.28l-.25,0-.28,0-.16,0-.16,0-.22,0L9.32,7,9.17,7,9,7l-.17,0s-.06,0-.08,0H8.69l-.11,0-.15,0-.18,0-.05,0-.42.14-.09,0-.15,0-.12,0H7.33l-.13,0L7,7.55l-.47,0-.13,0-.55,0H5.64a.76.76,0,0,0-.16,0H5.33l-.18,0-.29,0-.56.09H4.22a.69.69,0,0,0-.43.22l-.07.09-.06.14v.07s0,0,0,0,0,.05,0,.05l0,0a.35.35,0,0,0-.18.24A.77.77,0,0,1,3.35,9a.57.57,0,0,0-.08.13.53.53,0,0,1-.06.1.41.41,0,0,0-.07.11c-.05.1-.1.2-.16.3l-.12.22L2.78,10a.91.91,0,0,1-.07.14l-.12.23-.1.18-.07.15,0,.1a.56.56,0,0,1,0,.12.77.77,0,0,1-.07.16.42.42,0,0,0,0,.1l0,0c0,.09-.06.14-.14.14h0a.18.18,0,0,0-.1,0,.15.15,0,0,0,0,.1v0a0,0,0,0,1,0,0v0c0,.06,0,.13-.05.16s-.11.18-.11.27v.05H1.69a.26.26,0,0,0-.22.13h0v0l0,0,0,.07,0,0a.27.27,0,0,0,.05.11,1.1,1.1,0,0,0,.34.26l.1,0,.14.08.09,0,.2.11.17.09.44.23.09.05.09,0,.15.05a.41.41,0,0,1,.11.07l.06,0a.76.76,0,0,1,.25.18l.11.09.1.07a.34.34,0,0,0,.13.09l.11.06a1,1,0,0,0,.17.12l.09.05,0,0,.05.07a.22.22,0,0,0,0,.08l0,0s0,0,0,0a.2.2,0,0,0,.19.12H5l0,0,.21.19a.39.39,0,0,1,.08.1l.06.07a.08.08,0,0,0,.07,0h.62l0,0h0l.08,0h.06v0s0,0,0,0h.06l.14,0,.11,0h0l0,0h0l.13,0,.16,0,.11,0h.08v-.06h.07s0,0,0,0l.07,0,0,0h.06l0,0h0l0,0s0,0,0,0l0,0h.06c.07,0,.12,0,.13-.05h.05L8,15h.11a0,0,0,0,0,0,0s0,0,.09,0l.1,0h0a.06.06,0,0,0,.06,0h.12l.05,0h.13a.29.29,0,0,0,.1,0s0,0,.05,0H9s0,0,0,0,0,0,0,0h.06l.07,0v0h.09a.26.26,0,0,0,.21-.1h.3l.16,0,.29-.05h.61a.2.2,0,0,0,.09-.05.27.27,0,0,0,0-.16s0,0,0-.09v-.06a.05.05,0,0,0,0,0H11a.09.09,0,0,0,.07,0l.11,0h.07a.08.08,0,0,0,.07,0h.12l.2,0,.11,0,0-.05H12l.06,0,0,0h.34s.05-.05.05-.05v0h.18a.11.11,0,0,0,.11-.07H13l.25,0h.08a.15.15,0,0,0,.09,0h0l.18,0,.17,0h0l.05,0h.12l.15,0h0a.07.07,0,0,0,.07,0s0,0,0-.06h0a.07.07,0,0,0,.07-.07s0,0,0,0a0,0,0,0,0,0-.05v0s0-.05,0-.09ZM5.12,12.26s0,0,0,.05l-.22.18a2,2,0,0,1-.2.21s0,0,0,0a.17.17,0,0,1-.2,0,.13.13,0,0,0-.08.08H4.27a1.71,1.71,0,0,0-.5-.1H3.61a.32.32,0,0,1-.23-.13A1.68,1.68,0,0,1,3,12c0-.08,0-.17-.07-.26a.37.37,0,0,1,0-.16s0-.08.07-.13l0-.05a.43.43,0,0,1,0-.07.75.75,0,0,0,.1-.17.47.47,0,0,1,.06-.09s0,0,0-.06,0,0,0,0,0-.07.06-.11l0,0a.42.42,0,0,1,.26-.14h0a1,1,0,0,1,.34-.15h.19l.1,0a.35.35,0,0,1,.23.1l0,0h.1a.06.06,0,0,1,0,0h0a.11.11,0,0,1,0,.06h0l0,0a1.1,1.1,0,0,1,.22.21,1,1,0,0,1,.06,1.12.92.92,0,0,0,0,.17ZM15.61,4.4c-.14-.21-.28-.42-.41-.64l-.12-.19-.17-.26c-.09-.14-.18-.29-.28-.43l-.09-.12,0-.07h-.16l-.06,0-.1.06-.09.07a1,1,0,0,1-.19.12.69.69,0,0,0-.19.1l-.16.08a1.5,1.5,0,0,0-.4.25l-.05,0a.3.3,0,0,0-.17.18h0a.1.1,0,0,0,0,.05.09.09,0,0,0,0,.1s0,0,0,0a.11.11,0,0,0,.05.13l0,0s0,0,0,.07a1,1,0,0,0,.06.16l0,.07a.29.29,0,0,1,.08.14.16.16,0,0,0,.05.09l.36.46,0,0,0,0h0a.32.32,0,0,0,.12.21l.06.07a.16.16,0,0,0,.13.08H14l.08,0h.23l0,0s0,0,.06,0l.07,0c.05,0,.1,0,.13-.08h.05l0,0h0a.06.06,0,0,0,.06,0h0a.15.15,0,0,0,.09,0l0,0,.15-.11.11-.08.18-.13.05,0h0c.13,0,.15-.08.13-.2a.08.08,0,0,1,0-.11.16.16,0,0,0,.06-.08.76.76,0,0,1,0-.11Z"/><path class="cls-4" d="M7,9.48a2.13,2.13,0,0,1,.08-.27c0-.1.06-.24.18-.31s.18-.13.27-.18a.73.73,0,0,1,.21-.06,1.42,1.42,0,0,1,.7.17A.88.88,0,0,1,8.62,9a.61.61,0,0,1,.19.26.92.92,0,0,1,0,.76.88.88,0,0,1-.38.47.43.43,0,0,1-.19,0H8l-.21,0a3.69,3.69,0,0,1-.42-.17.76.76,0,0,1-.21-.19A.93.93,0,0,1,7,9.5v0Zm1.37,0a.35.35,0,0,0-.07-.26.12.12,0,0,0-.07-.05L7.87,9.1a.34.34,0,0,0-.32.12.58.58,0,0,0-.12.29.83.83,0,0,0,.09.51.22.22,0,0,0,.2.13.75.75,0,0,0,.51-.22.6.6,0,0,0,.15-.46ZM8,13.05a.93.93,0,0,1,.12-.41,1,1,0,0,0,0-.1l.18-.35c.08-.15.16-.3.25-.44a2.26,2.26,0,0,1,.16-.26c.15-.17.22-.37.36-.54s.11-.2.17-.29a1.13,1.13,0,0,1,.15-.21,2.68,2.68,0,0,0,.18-.28l.23-.37A.83.83,0,0,1,10,9.67c.05-.1.11-.19.16-.28a2.53,2.53,0,0,1,.12-.23l.16-.24.18-.28.13-.18a.88.88,0,0,0,.12-.15c0-.07.1-.06.16,0l.21.06c.07,0,.09.07.06.15s-.09.2-.14.3-.17.32-.26.48l-.56,1.05c-.11.19-.24.36-.36.55l-.36.61c-.1.16-.21.31-.31.46s-.19.31-.27.47L8.65,13a2.26,2.26,0,0,1-.11.22.69.69,0,0,1-.11.13h0l-.21-.16s-.06,0-.07,0L8,13.05Zm4.19-1.48a1.1,1.1,0,0,1-.59,1,.43.43,0,0,1-.27.08l0,0h-.24a.64.64,0,0,1-.3-.08c0-.05-.12-.08-.15-.13s-.19-.16-.22-.29a2,2,0,0,1-.05-.26v-.19a1,1,0,0,1,.16-.44l.2-.3a.16.16,0,0,1,.07-.07,1.16,1.16,0,0,1,.5-.15.77.77,0,0,1,.4.06.79.79,0,0,1,.32.31l.05.05a.74.74,0,0,1,.17.42Zm-1.45.31h0c0,.1.07.2.1.3a.18.18,0,0,0,.07.05.68.68,0,0,0,.35-.09,1.74,1.74,0,0,0,.29-.25.51.51,0,0,0,.15-.29.66.66,0,0,0-.09-.39.24.24,0,0,0-.13-.09.36.36,0,0,0-.18,0l-.18,0a.61.61,0,0,0-.21.24.79.79,0,0,0-.15.46Z"/><path class="cls-2" d="M4.61,10.78a.87.87,0,0,0-.67-.06c-.13.06-.24.13-.36.2a.92.92,0,0,0-.32.41,1.29,1.29,0,0,0-.08.31c0,.17,0,.31,0,.45a.73.73,0,0,0,.19.37.76.76,0,0,0,.3.23,1,1,0,0,0,.54,0c.07,0,.13-.07.21-.09a.6.6,0,0,0,.37-.24,1.22,1.22,0,0,0,.2-.53,1.72,1.72,0,0,0-.1-.64.68.68,0,0,0-.33-.41Zm.08,1.42a.53.53,0,0,1-.2.13.72.72,0,0,1-.35.08,1,1,0,0,1-.48-.14.7.7,0,0,1-.28-.47.22.22,0,0,1,0-.11,1.05,1.05,0,0,1,0-.19.73.73,0,0,1,.3-.48A.81.81,0,0,1,4,10.93s0,0,0,0a1.14,1.14,0,0,0,.25.06.3.3,0,0,1,.24.1s.08,0,.11.08a1.09,1.09,0,0,1,.14.23c0,.12.07.25.09.31A.82.82,0,0,1,4.69,12.2ZM15.13,4.1l-.22-.38-.15-.24c-.08-.15-.15-.3-.23-.44s-.06-.06-.11,0l-.29.19c-.16.09-.34.18-.5.28s-.16.13-.25.19l-.25.15s0,0,0,.06l.41.61.32.49.18.26a.09.09,0,0,0,.07,0l.34-.13a2.58,2.58,0,0,0,.69-.33.57.57,0,0,0,.16-.11s.06-.08.1-.11l0,0c-.07-.15-.14-.29-.22-.43Z"/><path class="cls-2" d="M4.47,11.52a.14.14,0,0,0-.07-.16s-.07-.11-.15-.07,0,0,0,0a.3.3,0,0,0-.39.12c0,.05-.06.11-.1.12s-.06.07-.08.13a1,1,0,0,0,.09.3c.08.17.16.29.33.25a.71.71,0,0,0,.21,0,.42.42,0,0,0,.22-.5c0-.05,0-.1,0-.15Z"/><path class="cls-2" d="M14,13.4,13.94,13c0-.21,0-.43-.08-.64s-.08-.3-.1-.46,0-.39-.07-.58-.07-.57-.12-.86-.08-.39-.11-.6-.07-.46-.12-.69-.1-.6-.16-.91c0-.16,0-.31-.08-.47s0-.24,0-.36L13,6.84s-.06-.06-.06-.09,0-.07-.07-.07h-.23l-1.06.19-1,.19-.84.17-.52.08-.83.15-.3.06-.62.11-.64.13-.52.1L5.79,8l-.94.15h-.1c0,.08-.11.07-.17.08l-.41.08A.21.21,0,0,0,4,8.4c-.07.13-.13.26-.21.39s-.21.36-.32.53-.05.06-.07.1L3,10a.83.83,0,0,1-.09.16,4.08,4.08,0,0,0-.51.85c-.09.18-.17.36-.27.54l-.33.59s0,0,0,0,0,0,.07.06l.71.54.58.43c.13.1.27.19.41.28l.36.24.46.31.49.29a3.5,3.5,0,0,0,.35.23c.16.07.28.21.43.29a.33.33,0,0,0,.23.1l.07,0c.13,0,.26,0,.38,0l.33-.09c.24,0,.48-.06.73-.11s.26,0,.37-.08h0l.16,0,.51-.07.58-.1.39-.08.63-.09a3.78,3.78,0,0,0,.57-.1c.2-.05.39-.11.6-.15s.34-.06.51-.09l.45-.08.3,0,.37-.07.5-.06.53-.06c.09,0,.1,0,.08-.11a.33.33,0,0,0,0-.1ZM5.35,11.93a1,1,0,0,1-.13.44,1,1,0,0,1-.3.34l-.08,0a1,1,0,0,0-.28.12,1.17,1.17,0,0,1-.2.06H4.22a1.27,1.27,0,0,1-.64-.13A1.2,1.2,0,0,1,3,12.4.46.46,0,0,1,3,12.25a.84.84,0,0,1-.1-.44,2.05,2.05,0,0,1,.28-.76,1,1,0,0,1,.21-.25.78.78,0,0,1,.2-.11l.09,0a1,1,0,0,1,.59-.09h.27a1.31,1.31,0,0,1,.5.18.84.84,0,0,1,.24.34,1.62,1.62,0,0,1,.12.85Z"/><path class="cls-2" d="M19,8.89a.14.14,0,0,1-.09-.12l0-.09-.2-.37-.29-.55c-.07-.13-.14-.26-.2-.39l-.29-.55-.25-.48c-.08-.14-.13-.3-.21-.45s-.22-.43-.32-.65l-.34-.69-.36-.71c-.06-.12-.12-.25-.19-.37-.15-.27-.31-.54-.47-.81s-.15-.28-.23-.41l-.39-.68s0-.05-.07,0a.26.26,0,0,1-.11.07l-.2.08-.24.15-.54.29-.48.26c-.15.08-.3.14-.45.23a3.79,3.79,0,0,0-.34.2L12.4,3l-.51.3-.52.23a3.9,3.9,0,0,1-.35.19,4.32,4.32,0,0,1-.67.36,3.88,3.88,0,0,0-.45.24l-.25.15-.43.24-.06.06-.24.12L8.61,5l-.3.18L8,5.37l-.37.19a2.25,2.25,0,0,1-.21.12l-.21.13L7,6s-.06.06-.11.08l-.44.19-.72.35-.56.3c-.1,0-.21.07-.31.12l-.35.19-.39.21L3.9,7.5s0,0,0,.06L4,7.83h0l.23,0a2.05,2.05,0,0,1,.34-.07.88.88,0,0,1,.16,0l.72-.13.4-.07h0s0,0,0,0l.15,0,.58-.13.47-.1.6-.11.73-.14.89-.15.71-.11.52-.09.49-.08.55-.1.3-.07.53-.11.41-.07h.32c.06,0,.13,0,.14.1l.06.21.09.4c0,.17.05.34.08.51,0,0,0,.06.06,0l.24-.17.75-.42.22-.14.07,0s.07,0,.11,0h.09c0,.08,0,.16,0,.23s0,.06,0,.08L15,7.08l-.14.08-.27.16-.43.22-.46.27s-.06,0-.06.05a1.52,1.52,0,0,1,0,.21,3.4,3.4,0,0,1,.07.46c0,.05,0,.11.08.1s.36-.22.54-.33L14.88,8a2.68,2.68,0,0,1,.33-.18c.15-.08.29-.17.44-.24s.09,0,.09.06,0,.19-.05.26v0a.17.17,0,0,1-.1.18,6.1,6.1,0,0,1-.54.34l-.41.26-.27.16-.47.26a.1.1,0,0,0-.06.11.42.42,0,0,0,0,.12c0,.15.05.29.07.44s0,.13,0,.2l0,0,.13-.07.38-.26L15,9.43l.31-.19.25-.13c.07,0,.15-.08.23-.13s.26-.14.39-.21h0a.71.71,0,0,1,.1.14s0,0,0,.07a.06.06,0,0,0,0,0,.75.75,0,0,0,0,.16s0,0,0,.05a.8.8,0,0,1-.21.15c-.21.13-.43.25-.64.36l-.19.12L15,10l-.35.21-.4.24s-.08.06-.13.06-.07,0,0,.06,0,.21,0,.3.1.44.13.66,0,.11.12.06l.59-.35.4-.24.53-.32.53-.3.36-.17.33-.17c.19-.1.39-.19.58-.3l.61-.34.37-.22a3,3,0,0,0,.3-.23s0,0,0,0ZM15.81,4.84l-.57.31-.64.28-.28.12L14,5.68l0,0c-.08.07-.08.07-.15,0l-.36-.57c-.13-.22-.26-.44-.4-.65l-.45-.68s0-.06,0-.09A4,4,0,0,0,13,3.45l.48-.34c.17-.12.35-.23.53-.34l.37-.23.15-.12s.07,0,.09,0l.12.24c.08.14.17.26.25.4s.15.23.22.34l.34.53c.07.13.13.26.19.39s.11.23.16.34l0,0A.31.31,0,0,1,15.81,4.84Z"/><path class="cls-5" d="M19.56,8.89l-.09-.17-.3-.58c-.09-.16-.17-.33-.26-.51l-.11-.19c-.1-.18-.2-.34-.29-.52s-.24-.45-.35-.68l-.44-.8c-.08-.15-.15-.31-.23-.46l-.27-.5L17,4c-.05-.11-.11-.21-.16-.31l-.25-.44c-.06-.11-.13-.21-.2-.33s-.21-.4-.32-.6-.14-.22-.21-.34l-.17-.27c-.06-.11-.14-.22-.2-.33s-.14-.27-.22-.41a.1.1,0,0,0-.13,0l-.39.2c-.17.09-.34.19-.51.27s-.28.14-.42.21l-.31.18L13,2.07c-.11.05-.21.12-.33.18l-.37.2L12,2.6l-.26.14-.32.17-.25.16-.63.33c-.16.09-.31.19-.48.27s-.43.22-.65.34L9,4.24l-.67.37L8,4.83l-.4.2-.38.21-.35.18c-.22.12-.44.26-.67.38s-.3.14-.45.23a1.17,1.17,0,0,1-.45.21c-.08,0-.15.09-.23.13l-.44.25-.37.19L3.93,7l-.4.19a1.38,1.38,0,0,1-.34.18s0,0,0,0l.13.26.24.57a.11.11,0,0,1,0,.08l-.14.15L3,9.08a3.64,3.64,0,0,0-.38.7,4.83,4.83,0,0,1-.23.52c0,.1-.1.2-.16.3l-.27.52-.45.81a1.19,1.19,0,0,0-.08.16v.16a.07.07,0,0,0,0,.05.68.68,0,0,0,.14.25,1.77,1.77,0,0,0,.32.21l.36.22c.15.1.29.22.44.33s.49.32.73.5l.86.62.53.39.34.25.36.24c.08.06.15.16.28.08h0a1.66,1.66,0,0,1,.32,0l.5,0L7,15.24l.17,0h.14l.4-.08L8,15.08c.14,0,.27-.06.41-.09l.52-.07a3,3,0,0,0,.51-.08c.09,0,.2,0,.3-.05s.27,0,.4-.07a1.9,1.9,0,0,1,.25,0l.18,0a4.13,4.13,0,0,1,.42-.14l.28-.06.35-.08.43-.08.12,0,.31-.06c.1,0,.21,0,.31,0l.34-.06.29,0,.29,0a3.15,3.15,0,0,1,.43,0,2.52,2.52,0,0,0,.47-.13v0c0-.16-.06-.32-.1-.49a.25.25,0,0,0,0-.08c0-.07,0-.13,0-.2s0-.25,0-.38-.08-.36-.12-.54a.08.08,0,0,1,.07-.1l.5-.25.52-.26.4-.2.25-.12.54-.27.17-.1.52-.27.39-.24.33-.19s.07-.08.12-.09.19-.12.29-.16.17-.14.27-.18a.88.88,0,0,0,.15-.12A1.29,1.29,0,0,0,19,9.47l.42-.32c.12-.06.18-.14.13-.26Zm-5.62,4.72-.53.06-.5.06-.37.07-.31,0-.44.08c-.17,0-.35.05-.52.09s-.39.11-.59.15a3.78,3.78,0,0,1-.57.1l-.63.09-.39.08-.58.1L8,14.59l-.16,0h0c-.11.09-.25.06-.38.08s-.48.07-.72.11l-.33.09c-.13,0-.26,0-.39,0L6,15c-.1,0-.15-.05-.23-.1s-.27-.22-.43-.29a3.5,3.5,0,0,1-.35-.23l-.49-.29L4,13.75l-.36-.24c-.13-.09-.28-.18-.41-.28l-.58-.43-.71-.54-.07-.06s0,0,0,0l.33-.59L2.45,11A4.08,4.08,0,0,1,3,10.17.61.61,0,0,0,3.05,10l.33-.59s.05-.06.07-.1.22-.35.32-.53.14-.26.21-.39a.19.19,0,0,1,.21-.12L4.6,8.2c.06,0,.13,0,.17-.08h.1L5.81,8l.49-.11.52-.1.63-.13.63-.11c.1,0,.2,0,.3-.06l.83-.15.52-.08.83-.17,1-.19,1.06-.19h.23a.06.06,0,0,1,.07.07s.05.06.06.09l.06.58c0,.12,0,.24,0,.36s.05.31.08.47c.06.31.11.6.16.91s.07.46.11.69.09.4.12.6l.12.86c0,.19,0,.39.06.58s.08.31.11.46.06.43.08.64l.06.41a.3.3,0,0,0,0,.1c0,.09,0,.1-.1.11Zm5-4.67a1.58,1.58,0,0,1-.29.22l-.37.23-.61.34L17.1,10l-.33.17-.36.18-.54.3-.53.31-.39.25-.6.34c-.09.06-.08.06-.11-.05s-.09-.44-.14-.66a1.54,1.54,0,0,0,0-.3c0-.06,0-.06,0-.06a.37.37,0,0,0,.14-.07l.39-.23L15,10l.26-.14.2-.11.64-.36.21-.15a0,0,0,0,0,0-.05l0-.16V9l0-.06-.1-.14h0a4,4,0,0,0-.4.22,1.67,1.67,0,0,1-.23.12l-.24.14L15,9.44l-.47.27-.39.26L14,10S14,10,14,10a1.52,1.52,0,0,0,0-.21c0-.15,0-.29-.07-.43a.5.5,0,0,0,0-.12c0-.05,0-.08.06-.12l.46-.26.28-.15L15,8.44c.18-.11.37-.22.54-.34a.2.2,0,0,0,.1-.19s0,0,0,0,0-.17,0-.27-.05-.07-.08,0l-.45.23L14.87,8l-.52.32c-.18.11-.36.23-.55.33,0,0-.06,0-.07-.1a3.65,3.65,0,0,0-.07-.46c0-.06,0-.13,0-.2s0,0,.06,0,.3-.19.46-.27l.43-.22.27-.17L15,7.09A1.24,1.24,0,0,0,15.16,7s0,0,0-.08,0-.15,0-.22l-.09,0s-.07.06-.11,0,0,0-.07,0l-.23.13-.74.43a2.2,2.2,0,0,0-.25.17s-.05,0-.05,0-.05-.34-.08-.51l-.09-.39a1.8,1.8,0,0,1-.06-.22c0-.09-.08-.09-.15-.09h-.32l-.4.06L12,6.33l-.31.08-.54.1-.49.08-.52.08-.71.12-.89.15-.73.14-.6.1-.47.11-.58.12L6,7.45s-.06,0,0,0h0l-.4.06-.73.13-.15,0-.34.08L4,7.85s0,0,0,0l-.15-.26s0-.05,0-.07a.72.72,0,0,0,.2-.09l.39-.2c.12-.06.23-.14.35-.19l.3-.13c.2-.09.38-.19.57-.29s.47-.24.72-.35l.44-.19S6.92,6,7,6l.28-.17.21-.12a2.25,2.25,0,0,1,.21-.12L8,5.37c.09,0,.18-.11.27-.16L8.6,5l.31-.19.23-.11.07-.06c.14-.08.29-.15.43-.24l.24-.16a2.82,2.82,0,0,1,.46-.23A6.19,6.19,0,0,0,11,3.69a3.9,3.9,0,0,1,.35-.19c.17-.08.35-.15.51-.24s.35-.19.51-.29l.25-.13c.12-.07.23-.15.35-.21l.44-.23.49-.26.54-.29.24-.14.19-.08A.35.35,0,0,0,15,1.56s.05,0,.06,0c.13.22.27.44.4.67s.15.28.23.41l.47.82c.07.12.13.24.19.37l.36.71c.11.23.22.46.34.69s.21.43.32.65.13.3.21.45l.25.47c.1.19.19.38.29.56l.2.38c.09.19.19.37.28.56l.21.37,0,.08c0,.06,0,.11.08.13s0,0,0,0Z"/><path class="cls-5" d="M5,10.73a1.25,1.25,0,0,0-.5-.18H4.22a1,1,0,0,0-.59.1l-.09,0a1.28,1.28,0,0,0-.2.11,1.57,1.57,0,0,0-.21.24,2.1,2.1,0,0,0-.28.77.86.86,0,0,0,.1.44l.09.15a1.2,1.2,0,0,0,.54.4,1.41,1.41,0,0,0,.64.13l.14,0v0a.68.68,0,0,0,.2-.07,1,1,0,0,1,.28-.11.2.2,0,0,0,.08,0,1.1,1.1,0,0,0,.43-.79,1.76,1.76,0,0,0-.12-.85A1,1,0,0,0,5,10.73Zm0,1.1a1,1,0,0,1-.2.53.6.6,0,0,1-.37.24c-.08,0-.14.07-.21.09a.9.9,0,0,1-.54,0,.76.76,0,0,1-.3-.23.69.69,0,0,1-.19-.37c0-.14,0-.28,0-.45a1,1,0,0,1,.08-.31.92.92,0,0,1,.32-.41c.12-.07.23-.14.36-.2a.79.79,0,0,1,.67.06.68.68,0,0,1,.33.41,1.75,1.75,0,0,1,.1.64Zm10.7-7.46c-.07-.13-.12-.27-.2-.39s-.22-.36-.33-.53-.15-.23-.22-.34-.17-.26-.25-.4a1.42,1.42,0,0,1-.12-.25.05.05,0,0,0-.09,0l-.16.12L14,2.79l-.53.34c-.16.11-.31.23-.48.34l-.38.23s0,0,0,.09c.15.22.29.45.44.68s.27.43.4.64.25.39.37.58.06.1.15,0l0,0,.33-.13a2.36,2.36,0,0,0,.28-.12c.21-.09.43-.18.64-.29a6.19,6.19,0,0,0,.57-.3l.11-.08,0,0Zm-.46.32-.17.11a2.44,2.44,0,0,1-.69.33,2.26,2.26,0,0,0-.33.13s-.06,0-.07,0A1.51,1.51,0,0,1,13.84,5c-.11-.16-.22-.32-.32-.48l-.41-.61s0-.05,0-.06l.25-.16a2.35,2.35,0,0,0,.25-.19l.5-.28A2.82,2.82,0,0,0,14.41,3c.06,0,.09,0,.11,0l.24.44c0,.08.1.16.14.25l.23.37c.07.15.15.29.21.42l0,0a.73.73,0,0,1-.09.13Z"/><path class="cls-5" d="M4.6,11.18s-.08,0-.11-.08a.33.33,0,0,0-.24-.1A.72.72,0,0,1,4,10.93H4a.5.5,0,0,0-.25.09.76.76,0,0,0-.31.48.67.67,0,0,1,0,.19.3.3,0,0,0,0,.1.64.64,0,0,0,.28.47.88.88,0,0,0,.48.15.68.68,0,0,0,.34-.08.62.62,0,0,0,.21-.13.77.77,0,0,0,.13-.49,2.81,2.81,0,0,0-.09-.31A.66.66,0,0,0,4.6,11.18Zm-.32,1a1.29,1.29,0,0,1-.21.05c-.18,0-.26-.08-.34-.25s0-.21-.08-.3,0-.11.08-.13.07-.08.1-.12a.3.3,0,0,1,.39-.13s0,0,0,0,.1,0,.15.06.09.09.06.17,0,.1,0,.15A.43.43,0,0,1,4.28,12.17Z"/><path class="cls-5" d="M2.75,4.2l.12,0h.48a1.18,1.18,0,0,1,.45.1,2,2,0,0,1,.66.44,3.72,3.72,0,0,1,.33.45,2.37,2.37,0,0,1,.26.56,1.59,1.59,0,0,1,.06.3c0,.19,0,.37,0,.56a.07.07,0,0,1,0,.05l-.18.1a.1.1,0,0,1-.15-.08c0-.15,0-.29-.07-.44a1.26,1.26,0,0,0-.1-.33,2,2,0,0,0-.18-.39A1.93,1.93,0,0,0,3.91,5a2,2,0,0,0-.52-.28.58.58,0,0,0-.14,0l-.45,0a2.19,2.19,0,0,0-.51.1A1.4,1.4,0,0,0,1.86,5a1.65,1.65,0,0,0-.41.34c-.1.1-.18.21-.28.33L1,5.75A.31.31,0,0,1,1,5.84a.18.18,0,0,0-.08.09,1.06,1.06,0,0,0-.11.21,1,1,0,0,0-.08.25c0,.1-.07.19-.1.29a.71.71,0,0,1,0,.21C.5,7,.53,7.1.52,7.2a2,2,0,0,0,0,.49v.16A1.52,1.52,0,0,0,.7,8.5a2.75,2.75,0,0,0,.14.3,2.57,2.57,0,0,0,.78.76,6.24,6.24,0,0,0,1,.48l.29.12H3a.87.87,0,0,1,.35.22l.66.53a.27.27,0,0,1,.07.13s0,0-.07.07l-.09.09a.25.25,0,0,0,0,.07c0,.05-.07.05-.12,0A1.43,1.43,0,0,0,3.39,11a4.3,4.3,0,0,0-.65-.39c-.18-.08-.37-.14-.56-.21l-.46-.22c-.13-.06-.27-.12-.39-.19A3.38,3.38,0,0,1,1,9.69a1.12,1.12,0,0,1-.2-.17C.72,9.46.65,9.43.62,9.35s-.05,0-.07-.06a3.87,3.87,0,0,1-.24-.37,4.19,4.19,0,0,1-.16-.46,2.09,2.09,0,0,1-.08-.23c0-.13,0-.25,0-.38l0-.41a0,0,0,0,0,0,0V7.27s.06-.1.05-.14a2.1,2.1,0,0,1,.09-.61,1.09,1.09,0,0,1,.07-.24c.06-.15.13-.3.2-.45s.16-.27.23-.41A.94.94,0,0,1,.87,5.1l.31-.25.51-.32A1.33,1.33,0,0,1,2,4.38a1.69,1.69,0,0,1,.7-.15v0Z"/></svg>