<svg id="Layer_1" data-name="Layer 1" xmlns="http://www.w3.org/2000/svg" viewBox="0 0 400 11"><defs><style>.cls-1{fill:#fff;}.cls-2{fill:#d6eaf8;}</style></defs><rect class="cls-1" y="0.82" width="400" height="10.18"/><path class="cls-2" d="M.9,7.11c2.65-.41,5.45.71,6.1.06,1.78-.42,3.52,1,5.25.32,1.74-.43,3.47,0,5.25.31,3.13,0,6.43,1.6,9.56,0,1.81-.34,3.27.08,5.12-.36,2.12-.18,4.31,1.3,6.41.7,1,1,1.38-.16,2.45-.7.72-.08,1.49-1.3,2.2,0a3.93,3.93,0,0,1,3.22-.67c1.25.39,2.69-.58,4,0,1.12-.52,2.38-.09,3.46,0,.24-.12.51-.07.6-.25,1.48.69,3-1.1,4.43-.73a45.29,45.29,0,0,1,7.18,0c1.84.45,3.71,0,5.55,0l1.06,0c1.81.82,3.45-.73,5.21-.58,1.29-.25,2.23-.5,3.19.3.83,1.12,1.48.11,2.47,1.11,1.79.31,3.21,1.56,5.24,1.08,2.55,1,4.62,2,7.2.64a36.33,36.33,0,0,0,3.84-.33,6.33,6.33,0,0,0,3.9.57,26.39,26.39,0,0,0,8,1c1.62.85,3,1.69,4.66.66.57.28,1.85-.1,2.33,0,.35-.51.33-.75.66-.79,1-.58,4.67-.24,5.79-.06a17.93,17.93,0,0,0,3.82.58c1.42.5,2.88-.85,4.3,0,1,.67,3.21.07,4.28,0,1.14.24,1.63-1.68,3-.67a30.86,30.86,0,0,0,3.19,0c1.84-.18,3.5-1.37,5.34-.34,1.63-.33,3.26-.81,4.9,0,1.28-.95,2.15.1,3.19-.3.7-.17,1.2-1.78,2-1a3.49,3.49,0,0,1,3-.39c.26-.14.52.9.87-.26a18.9,18.9,0,0,0,2.13,0c2.43-.52,4.86.65,7.29,0,1.46,0,3,0,4.42,0,.93.64,1.46.88,2.32.5.53.28,1.25-.76,1.74.2.42.22.62.18,1,.6a6.51,6.51,0,0,1,3.41.3,2.88,2.88,0,0,1,2.06-.07c0-.27.33,0,.49-.26,1.48-.58,3.67-.1,5.28,0,2.62.34,5.32,0,7.94,0a5.31,5.31,0,0,1,2.85.35c.76.26,1.56.86,2.33,0,1.22-1,2.52.4,3.73,0,1.71.2,3-.54,4.81-.66,1.68.12,2.36-.76,3.84-.67a28,28,0,0,0,4.83.35,5.6,5.6,0,0,0,4.18,0c1.54-.47,3.09,0,4.63,0,1.56.39,3,1.13,4.51.35a.89.89,0,0,0,1.35-.08c.13-.35.3-.15.52-.4a4.06,4.06,0,0,0,2.2-.19c1.31.35,2.29-.07,3.52-.24,2.21-.57,4.78-.09,7,0,2-.09,1.34.22,2.53-.94.64-.8.49.14,1.27-.39,1.13.36,2.48-.28,3.63,0,2.12-.46,4.24.08,6.36,0,2.47-.64,4.88,1.27,7.26.73,2,.34,4,1.51,6,1.44,1.46.32,2.18-.57,3.43.85,1.08.53,2.24,2.17,3.65,1.49,2.1-.07,4.48,0,6.61,0,2.34,0,5.6-.65,7.68.3,2.39.08,4.81.36,7.34.34,2.16-.94,4.37.43,6.69-.32,1,.58,2.07-1,3,0,1.5-1.15,1.61-1.67,2.11-1.58,1.14-1.54,1.67,0,2.65-.86.94-1,1.61-.83,2.53-.11.63-.89,1.11-.74,1.73-.35.75,1.77,1.75-1.08,2.53,0,1.77-.76,3.53.05,5.29,0,1.27.19,4-.07,5.08,0,.74-.62.63-1.77,1.09-1,.45.51.89-1.52,1.61-.62,1.5-.68,2.94-2.34,4.32-.67,1.46-.44,3.21.22,5-.68a6.08,6.08,0,0,0,5.14.22c2.13-.43,3.42,2.21,5.67,1.46,2.71.48,5.57-.53,8.26,0a6.24,6.24,0,0,0,5.95.73c.8-.44,1.29.12,2,.57a2.73,2.73,0,0,0,3.18.65c1.88-.16,3.93.66,5.82,0,1.92.42,2.89-.23,4.85,1,.72-.48,2.09.56,2.71,0,.87.15,1.19-.87,2.22-.69A14.34,14.34,0,0,1,400,8.63V0H0V.82H0V7.16Z"/></svg>